<svg xmlns="http://www.w3.org/2000/svg" version="1.1" xmlns:xlink="http://www.w3.org/1999/xlink" xmlns:svgjs="http://svgjs.dev/svgjs" width="1000" height="1000" viewBox="0 0 1000 1000"><rect width="1000" height="1000" fill="#ed1703"></rect><g transform="matrix(0.7,0,0,0.7,149.90044910179654,149.90044910179637)"><svg viewBox="0 0 334 334" data-background-color="#ed1703" preserveAspectRatio="xMidYMid meet" height="1000" width="1000" xmlns="http://www.w3.org/2000/svg" xmlns:xlink="http://www.w3.org/1999/xlink"><g id="tight-bounds" transform="matrix(1,0,0,1,0.04749999999998522,0.04750000000001364)"><svg viewBox="0 0 333.90454557049503 333.90454557049503" height="333.90454557049503" width="333.90454557049503"><g><svg></svg></g><g><svg viewBox="0 0 333.90454557049503 333.90454557049503" height="333.90454557049503" width="333.90454557049503"><g><path d="M0 166.952c0-92.205 74.747-166.952 166.952-166.952 92.205 0 166.952 74.747 166.953 166.952 0 92.205-74.747 166.952-166.953 166.953-92.205 0-166.952-74.747-166.952-166.953zM166.952 316.63c82.665 0 149.677-67.013 149.678-149.678 0-82.665-67.013-149.677-149.678-149.677-82.665 0-149.677 67.013-149.677 149.677 0 82.665 67.013 149.677 149.677 149.678z" data-fill-palette-color="tertiary" fill="#ffffff" stroke="transparent"></path><ellipse rx="160.27418187383762" ry="160.27418187383762" cx="166.95227278524752" cy="166.95227278524752" fill="#ffffff" stroke="transparent" stroke-width="0" fill-opacity="1" data-fill-palette-color="tertiary"></ellipse></g><g transform="matrix(1,0,0,1,96.92781161794721,71.17305217166896)"><svg viewBox="0 0 140.0489223346006 191.55844122715712" height="191.55844122715712" width="140.0489223346006"><g><svg viewBox="0 0 140.0489223346006 191.55844122715712" height="191.55844122715712" width="140.0489223346006"><g><svg viewBox="0 0 140.0489223346006 191.55844122715712" height="191.55844122715712" width="140.0489223346006"><g><svg viewBox="0 0 140.0489223346006 191.55844122715712" height="191.55844122715712" width="140.0489223346006"><g><svg viewBox="0 0 140.0489223346006 191.55844122715712" height="191.55844122715712" width="140.0489223346006"><g><svg viewBox="0 0 140.0489223346006 191.55844122715712" height="191.55844122715712" width="140.0489223346006"><g transform="matrix(1,0,0,1,0,0)"><svg width="140.0489223346006" viewBox="-0.8500000238418579 -36 29.5 40.349998474121094" height="191.55844122715712" data-palette-color="#ed1703"><path d="M0.85 4.35L0.85 4.35Q-0.25 3.7-0.55 2.98-0.85 2.25-0.85 1.75L-0.85 1.75Q-0.85 0.35 0.18-2.05 1.2-4.45 2.93-7.53 4.65-10.6 6.75-13.9L6.75-13.9Q4.9-14.05 3.6-14.1 2.3-14.15 1.35-14.15L1.35-14.15-0.4-14.15Q0.15-15.6 1.53-16.18 2.9-16.75 4.8-16.75L4.8-16.75Q5.65-16.75 6.55-16.65 7.45-16.55 8.4-16.4L8.4-16.4Q10.95-20.25 13.63-23.88 16.3-27.5 18.63-30.33 20.95-33.15 22.5-34.6L22.5-34.6Q23.95-36 24.9-36L24.9-36Q25.45-36 26.13-35.58 26.8-35.15 27.55-34.4L27.55-34.4Q27.05-34 26.28-32.27 25.5-30.55 24.63-27.95 23.75-25.35 22.9-22.25 22.05-19.15 21.33-15.93 20.6-12.7 20.18-9.8 19.75-6.9 19.75-4.7L19.75-4.7Q19.75-2.8 20.18-1.75 20.6-0.7 21.6-0.7L21.6-0.7Q22.9-0.7 24.55-2.5 26.2-4.3 28.15-8.1L28.15-8.1 28.65-7.6Q27.15-3.6 24.83-1.05 22.5 1.5 20 1.5L20 1.5Q17.95 1.5 17.03-0.33 16.1-2.15 16.1-5.2L16.1-5.2Q16.1-6.8 16.32-8.7 16.55-10.6 16.95-12.65L16.95-12.65Q14.75-13 12.93-13.23 11.1-13.45 9.55-13.65L9.55-13.65Q7.2-9.3 4.98-4.7 2.75-0.1 0.85 4.35ZM17.3-14.4L17.3-14.4Q18.05-17.7 19.05-21.08 20.05-24.45 21.18-27.5 22.3-30.55 23.3-32.85L23.3-32.85Q21.75-31.9 19.73-29.48 17.7-27.05 15.45-23.58 13.2-20.1 10.85-15.95L10.85-15.95Q12.55-15.6 14.23-15.18 15.9-14.75 17.3-14.4Z" opacity="1" transform="matrix(1,0,0,1,0,0)" fill="#ed1703" class="undefined-text-0" data-fill-palette-color="quaternary" id="text-0"></path></svg></g></svg></g></svg></g></svg></g><g></g></svg></g></svg></g></svg></g></svg></g><defs></defs></svg><rect width="333.90454557049503" height="333.90454557049503" fill="none" stroke="none" visibility="hidden"></rect></g></svg></g></svg>