<svg xmlns="http://www.w3.org/2000/svg" version="1.1" xmlns:xlink="http://www.w3.org/1999/xlink" xmlns:svgjs="http://svgjs.dev/svgjs" width="1000" height="1000" viewBox="0 0 1000 1000"><rect width="1000" height="1000" fill="#ffffff"></rect><g transform="matrix(0.7,0,0,0.7,149.57575757575756,282.1265587044535)"><svg viewBox="0 0 396 247" data-background-color="#ffffff" preserveAspectRatio="xMidYMid meet" height="623" width="1000" xmlns="http://www.w3.org/2000/svg" xmlns:xlink="http://www.w3.org/1999/xlink"><g id="tight-bounds" transform="matrix(1,0,0,1,0.2400000000000091,-0.09999999999999432)"><svg viewBox="0 0 395.52 247.2" height="247.2" width="395.52"><g><svg></svg></g><g><svg viewBox="0 0 395.52 247.2" height="247.2" width="395.52"><g transform="matrix(1,0,0,1,75.54432,74.50458171071082)"><svg viewBox="0 0 244.43135999999998 98.19083657857834" height="98.19083657857834" width="244.43135999999998"><g><svg viewBox="0 0 244.43135999999998 98.19083657857834" height="98.19083657857834" width="244.43135999999998"><g><svg viewBox="0 0 244.43135999999998 98.19083657857834" height="98.19083657857834" width="244.43135999999998"><g><svg viewBox="0 0 244.43135999999998 98.19083657857834" height="98.19083657857834" width="244.43135999999998"><g><svg viewBox="0 0 244.43135999999998 98.19083657857834" height="98.19083657857834" width="244.43135999999998"><g><svg viewBox="0 0 244.43135999999998 69.14398988865483" height="69.14398988865483" width="244.43135999999998"><g transform="matrix(1,0,0,1,0,0)"><svg width="244.43135999999998" viewBox="1.0499999523162842 -37 166.13999938964844 47" height="69.14398988865483" data-palette-color="#ee3e38"><path d="M28.75 0L23.4 0 20.7-9.65 8.95-9.65 6.25 0 1.05 0 11.5-34.9 18.25-34.9 28.75 0ZM19.45-14L16.2-25 15.1-30.1 14.45-30.1 13.35-25 10.25-14 19.45-14ZM38.45 0L33.3 0 33.3-26 38.45-26 38.45-20.85 39.05-20.85Q39.6-23.35 41.12-24.68 42.65-26 45-26L45-26 46.3-26 46.3-20.75 44.1-20.75Q41.35-20.75 39.9-19.7 38.45-18.65 38.45-16.35L38.45-16.35 38.45 0ZM61.9-12.35L65.75-26 70.84-26 60.8 5.9Q60.4 7.1 59.92 7.9 59.45 8.7 58.77 9.18 58.09 9.65 57.15 9.83 56.2 10 54.95 10L54.95 10 51.34 10 51.34 5.75 56.05 5.75 57.25 1.4 48.59-26 53.84-26 57.75-12.35 59.55-4.45 60.09-4.45 61.9-12.35ZM94.29 0L90.99 0Q89.09 0 88.04-1.05 86.99-2.1 86.99-4.35L86.99-4.35 86.39-4.35Q85.84-2 84.12-0.7 82.39 0.6 79.89 0.6L79.89 0.6Q76.19 0.6 74.37-1.38 72.54-3.35 72.54-6.95L72.54-6.95Q72.54-10.85 75.04-12.9 77.54-14.95 82.39-14.95L82.39-14.95 86.69-14.95 86.69-17.45Q86.69-19.95 85.59-21.13 84.49-22.3 82.09-22.3L82.09-22.3Q80.24-22.3 78.92-21.5 77.59-20.7 76.49-18.8L76.49-18.8 73.44-21.6Q74.74-23.8 76.97-25.2 79.19-26.6 82.44-26.6L82.44-26.6Q87.14-26.6 89.49-24.33 91.84-22.05 91.84-17.65L91.84-17.65 91.84-4.25 94.29-4.25 94.29 0ZM81.59-3.4L81.59-3.4Q82.69-3.4 83.62-3.75 84.54-4.1 85.22-4.7 85.89-5.3 86.29-6.13 86.69-6.95 86.69-7.9L86.69-7.9 86.69-11.5 82.64-11.5Q77.79-11.5 77.79-8L77.79-8 77.79-6.8Q77.79-5.05 78.82-4.23 79.84-3.4 81.59-3.4ZM104.29 0L99.14 0 99.14-26 104.29-26 104.29-21.7 104.89-21.7Q106.44-26.6 111.29-26.6L111.29-26.6Q114.79-26.6 116.72-24.23 118.64-21.85 118.64-17.25L118.64-17.25 118.64 0 113.49 0 113.49-16.55Q113.49-19.3 112.44-20.75 111.39-22.2 109.14-22.2L109.14-22.2Q107.09-22.2 105.69-20.98 104.29-19.75 104.29-17.55L104.29-17.55 104.29 0ZM132.99 0.6L132.99 0.6Q129.74 0.6 127.36-0.63 124.99-1.85 123.24-4.2L123.24-4.2 126.54-7.25Q127.84-5.4 129.39-4.48 130.94-3.55 133.04-3.55L133.04-3.55Q135.09-3.55 136.19-4.48 137.29-5.4 137.29-7.2L137.29-7.2Q137.29-8.6 136.59-9.45 135.89-10.3 134.04-10.65L134.04-10.65 131.79-11.05Q127.84-11.75 125.99-13.5 124.14-15.25 124.14-18.7L124.14-18.7Q124.14-22.75 126.49-24.68 128.84-26.6 132.94-26.6L132.94-26.6Q135.94-26.6 138.06-25.58 140.19-24.55 141.79-22.6L141.79-22.6 138.69-19.55Q137.64-21 136.16-21.73 134.69-22.45 132.99-22.45L132.99-22.45Q129.09-22.45 129.09-18.9L129.09-18.9Q129.09-17.35 129.89-16.6 130.69-15.85 132.44-15.55L132.44-15.55 134.74-15.1Q138.79-14.4 140.51-12.63 142.24-10.85 142.24-7.75L142.24-7.75Q142.24-3.8 139.84-1.6 137.44 0.6 132.99 0.6ZM147.69 0L147.69-37 152.84-37 152.84-21.7 153.44-21.7Q154.99-26.6 159.84-26.6L159.84-26.6Q163.34-26.6 165.26-24.23 167.19-21.85 167.19-17.25L167.19-17.25 167.19 0 162.04 0 162.04-16.55Q162.04-19.3 160.99-20.75 159.94-22.2 157.69-22.2L157.69-22.2Q155.64-22.2 154.24-20.98 152.84-19.75 152.84-17.55L152.84-17.55 152.84 0 147.69 0Z" opacity="1" transform="matrix(1,0,0,1,0,0)" fill="#000000" class="undefined-text-0" data-fill-palette-color="primary" id="text-0"></path></svg></g></svg></g><g transform="matrix(1,0,0,1,0,85.4672264456089)"><svg viewBox="0 0 244.43135999999998 12.723610132969435" height="12.723610132969435" width="244.43135999999998"><g transform="matrix(1,0,0,1,0,0)"><svg width="244.43135999999998" viewBox="2.25 -36.20320510864258 893.3499755859375 46.50755310058594" height="12.723610132969435" data-palette-color="#8d021f"><path d="M20 0.4L20 0.4Q17.25 0.4 14.6-0.3 11.95-1 10-2.25L10-2.25Q7.8-3.65 6.03-6.2 4.25-8.75 3.25-11.78 2.25-14.8 2.25-17.6L2.25-17.6Q2.25-21.35 3.85-24.9 5.45-28.45 8.35-31.35L8.35-31.35Q10.55-33.55 13.3-34.75L13.3-34.75Q16.55-36.1 19.85-36.1L19.85-36.1Q22.7-36.1 25.55-35L25.55-35Q27.4-34.3 28.7-33.23 30-32.15 31.55-30.4L31.55-30.4 33.05-28.55Q33.65-27.8 33.65-27L33.65-27Q33.65-26 32.85-25.25 32.05-24.5 31-24.5L31-24.5Q29.95-24.5 29.15-25.45L29.15-25.45 27.3-27.7Q26.6-28.45 25.65-29.18 24.7-29.9 23.75-30.3L23.75-30.3Q21.6-31.2 19.45-31.05L19.45-31.05Q14.9-30.65 11.8-27.7L11.8-27.7Q7.25-23.3 7.25-17.6L7.25-17.6Q7.25-14.55 8.88-11.23 10.5-7.9 12.7-6.45L12.7-6.45Q14.05-5.6 15.95-5.1 17.85-4.6 19.85-4.6L19.85-4.6Q25.9-4.6 27.75-7.95L27.75-7.95Q28.1-8.55 28.6-10.25L28.6-10.25 29.1-11.85Q29.4-12.65 30.03-13.1 30.65-13.55 31.35-13.55L31.35-13.55Q32.35-13.55 33.15-12.85 33.95-12.15 33.95-11.05L33.95-11.05Q33.95-10.6 33.8-10.15L33.8-10.15 33.45-9.1Q32.6-6.5 32.15-5.55L32.15-5.55Q30.6-2.85 27.8-1.4 25 0.05 21.4 0.35L21.4 0.35Q20.95 0.4 20 0.4L20 0.4ZM52.4-0.35L52.4-0.35Q45.8 1.25 41.85-3L41.85-3Q38.7-6.25 37.95-11.35L37.95-11.35Q37.4-15.35 38.9-18.95L38.9-18.95Q40.7-23.55 44.6-25.75L44.6-25.75Q45.4-26.2 46.6-26.4L46.6-26.4Q46.65-26.4 47.3-26.45L47.3-26.45Q47.55-26.5 47.7-26.55L47.7-26.55Q48.45-26.7 49.2-26.4L49.2-26.4Q49.4-26.4 50.15-26.38 50.9-26.35 51.15-26.33 51.4-26.3 52.02-26.23 52.65-26.15 53.05-26.05L53.05-26.05 54-25.7Q54.6-25.5 55.15-25.2 55.7-24.9 56.35-24.5L56.35-24.5Q59.6-22.3 60.85-18.32 62.1-14.35 61.5-11.9L61.5-11.9Q61.05-9.2 59.9-6.88 58.75-4.55 56.72-2.75 54.7-0.95 52.4-0.35L52.4-0.35ZM50.85-5.55L50.85-5.55Q53-5.85 54.52-7.78 56.05-9.7 56.52-11.85 57-14 56.17-16.57 55.35-19.15 53.55-20.3L53.55-20.3Q53-20.7 52.65-20.88 52.3-21.05 51.82-21.18 51.35-21.3 51.07-21.3 50.8-21.3 49.9-21.35 49-21.4 48.3-21.45L48.3-21.45Q48.15-21.45 47.95-21.5L47.95-21.5Q47.4-21.45 47.35-21.45L47.35-21.45 47-21.35Q44.8-20.15 43.62-17.53 42.45-14.9 42.95-12.1L42.95-12.1Q43.5-8.7 45.4-6.95L45.4-6.95Q47.45-5.05 50.85-5.55L50.85-5.55ZM86.85 0L86.85 0Q86.05 0 85.4-0.45 84.75-0.9 84.5-2.15L84.5-2.15Q82.35-0.6 80-0.15L80-0.15Q76.75 0.45 74.05-0.5 71.35-1.45 69.5-3.65L69.5-3.65Q66.15-7.55 66.2-13.55L66.2-13.55Q66.25-18.95 69.7-22.85L69.7-22.85Q73.85-27.5 80.6-26.3L80.6-26.3Q82.9-25.9 84.1-25.25L84.1-25.25 84-33.25Q84-34.3 84.72-35.05 85.45-35.8 86.47-35.8 87.5-35.8 88.25-35.08 89-34.35 89-33.35L89-33.35Q89.35-10.55 89.35-2.5L89.35-2.5Q89.35-1.45 88.62-0.73 87.9 0 86.85 0L86.85 0ZM79.1-5.05L79.1-5.05Q80.05-5.25 81.1-5.75 82.15-6.25 82.57-6.58 83-6.9 83.22-7.15 83.45-7.4 83.75-7.73 84.05-8.05 84.3-8.75L84.3-8.75Q84.3-15.1 84.2-18.85L84.2-18.85Q84.15-18.85 84.1-18.9L84.1-18.9Q82-20.7 82-20.75L82-20.75Q81.45-21.1 79.7-21.4L79.7-21.4Q75.7-22.1 73.45-19.5L73.45-19.5Q71.2-17.05 71.2-13.55L71.2-13.55Q71.15-9.4 73.3-6.88 75.45-4.35 79.1-5.05L79.1-5.05ZM108.19 0.25L108.19 0.25Q104.49 0 101.74-1.25 98.99-2.5 97.54-4.4 96.09-6.3 95.44-7.9 94.79-9.5 94.64-11.08 94.49-12.65 94.79-15.15L94.79-15.15Q95.14-17.25 96.27-19.3 97.39-21.35 99.27-22.98 101.14-24.6 103.79-25.48 106.44-26.35 109.44-26L109.44-26Q112.34-25.65 114.39-24.43 116.44-23.2 117.89-21.3L117.89-21.3Q119.14-19.7 119.42-18.9 119.69-18.1 119.92-17.4 120.14-16.7 120.29-16.2 120.44-15.7 120.57-15.18 120.69-14.65 120.74-13.95L120.74-13.95Q120.79-13 120.39-12.2 119.99-11.4 119.19-10.95L119.19-10.95Q118.54-10.7 117.79-10.7L117.79-10.7 109.24-10.55Q100.24-10.5 100.24-10.35L100.24-10.35 100.09-10.35Q100.74-7.8 102.82-6.35 104.89-4.9 108.49-4.65L108.49-4.65Q110.44-4.55 111.74-4.85L111.74-4.85Q113.19-5.25 113.84-5.58 114.49-5.9 115.44-6.45L115.44-6.45Q116.39-6.8 117.34-6.35 118.29-5.9 118.64-4.95 118.99-4 118.57-3.1 118.14-2.2 117.24-1.7L117.24-1.7Q116.44-1.25 115.59-0.93 114.74-0.6 113.09-0.15 111.44 0.3 108.19 0.25L108.19 0.25ZM100.19-15.25L100.19-15.25Q103.09-15.4 115.24-15.55L115.24-15.55Q114.79-17.05 113.79-18.4L113.79-18.4Q111.79-20.7 108.84-21.05L108.84-21.05Q105.74-21.45 103.39-19.73 101.04-18 100.19-15.25L100.19-15.25ZM145.49 0L145.49 0Q144.54 0 143.79-0.5 143.04-1 142.79-1.8L142.79-1.8Q142.04-4.45 139.44-12.25L139.44-12.25Q137.19-18.95 136.14-23.3L136.14-23.3Q135.74-24.45 136.51-25.43 137.29-26.4 138.64-26.4L138.64-26.4Q140.54-26.4 141.04-24.4L141.04-24.4Q142.39-19.45 144.29-13.85L144.29-13.85Q145.04-11.5 145.29-9.95L145.29-9.95 146.44-13.45 147.14-15.55Q147.09-15.4 148.24-19L148.24-19Q148.54-19.9 148.84-20.88 149.14-21.85 149.49-22.85L149.49-22.85Q150.34-25.2 152.49-25.2L152.49-25.2Q153.54-25.2 154.21-24.6 154.89-24 155.39-22.6L155.39-22.6Q157.74-16 159.89-8.55L159.89-8.55 160.99-13.05Q161.39-14.85 161.89-16.95L161.89-16.95Q162.89-21.15 163.84-24.4L163.84-24.4Q164.09-25.35 164.74-25.9 165.39-26.45 166.19-26.45L166.19-26.45Q167.44-26.45 168.14-25.5 168.84-24.55 168.44-23.25L168.44-23.25Q168.39-23.15 168.04-21.45L168.04-21.45Q167.49-19 166.79-16.45L166.79-16.45 165.69-12.45Q163.79-5.35 162.94-2.85L162.94-2.85Q161.84 0 159.89 0L159.89 0Q158.84 0 158.04-0.65 157.24-1.3 156.84-2.45L156.84-2.45 156.04-4.9Q154.89-8.3 152.04-16.95L152.04-16.95 151.19-13.95Q148.89-6.05 148.39-3.8L148.39-3.8Q147.94-1.9 147.19-0.95 146.44 0 145.49 0L145.49 0ZM172.59-2.4L172.59-2.4Q172.49-6.15 172.61-13.9 172.74-21.65 172.74-24.05L172.74-24.05Q172.74-25.1 173.46-25.83 174.19-26.55 175.24-26.55 176.29-26.55 177.01-25.83 177.74-25.1 177.74-24.05L177.74-24.05Q177.74-21.65 177.61-13.95 177.49-6.25 177.59-2.5L177.59-2.5Q177.59-1.45 176.89-0.7 176.19 0.05 175.14 0.05 174.09 0.05 173.34-0.65 172.59-1.35 172.59-2.4L172.59-2.4ZM177.24-35.2L177.24-35.2Q178.09-34.35 178.09-33.1 178.09-31.85 177.24-31 176.39-30.15 175.14-30.15 173.89-30.15 173.04-31 172.19-31.85 172.19-33.1 172.19-34.35 173.04-35.2 173.89-36.05 175.16-36.08 176.44-36.1 177.24-35.2L177.24-35.2ZM192.53-0.15L192.53-0.15Q192.23-0.25 191.31-0.45 190.38-0.65 189.71-0.9 189.03-1.15 188.16-1.63 187.28-2.1 186.58-2.93 185.88-3.75 185.38-4.9L185.38-4.9Q184.83-6.25 184.68-10.2L184.68-10.2Q184.53-13.25 184.63-18.05L184.63-18.05Q184.63-18.95 184.68-21.05L184.68-21.05 184.28-21Q183.23-20.9 182.43-21.55 181.63-22.2 181.51-23.23 181.38-24.25 182.03-25.05 182.68-25.85 183.68-26L183.68-26 184.83-26.1Q184.88-28.75 184.98-31.45L184.98-31.45Q185.03-32.5 185.78-33.2 186.53-33.9 187.58-33.85 188.63-33.8 189.33-33.05 190.03-32.3 189.98-31.25L189.98-31.25 189.83-26.5 191.48-26.6Q192.53-26.65 193.31-26 194.08-25.35 194.16-24.3 194.23-23.25 193.58-22.48 192.93-21.7 191.88-21.6L191.88-21.6 189.68-21.5Q189.63-19.1 189.63-18L189.63-18Q189.53-13.3 189.68-10.35L189.68-10.35Q189.78-7.35 189.98-6.9 190.18-6.45 190.28-6.28 190.38-6.1 190.66-5.93 190.93-5.75 191.23-5.7 191.53-5.65 192.36-5.43 193.18-5.2 194.13-4.85L194.13-4.85Q195.08-4.55 195.56-3.63 196.03-2.7 195.71-1.73 195.38-0.75 194.46-0.28 193.53 0.2 192.53-0.15L192.53-0.15ZM220.83-2.4L220.83-2.4Q220.78-1.35 220.03-0.65 219.28 0.05 218.26 0.03 217.23 0 216.53-0.75 215.83-1.5 215.83-2.5L215.83-2.5Q215.83-2.55 216.13-7.2L216.13-7.2Q216.43-12.3 216.23-14.95L216.23-14.95Q215.78-21.2 211.63-21.5L211.63-21.5Q209.43-21.65 208.01-20.83 206.58-20 205.23-17.95L205.23-17.95Q205.13-17.8 204.83-17.25L204.83-17.25Q205.18-6.45 205.18-2.45L205.18-2.45Q205.18-1.4 204.46-0.68 203.73 0.05 202.68 0.05 201.63 0.05 200.91-0.68 200.18-1.4 200.18-2.45L200.18-2.45Q200.18-4.75 199.78-18L199.78-18Q199.48-27.95 199.68-33.8L199.68-33.8Q199.73-34.8 200.48-35.52 201.23-36.25 202.26-36.2 203.28-36.15 204.01-35.4 204.73-34.65 204.68-33.6L204.68-33.6Q204.63-32.25 204.63-23.15L204.63-23.15Q207.83-26.85 212.13-26.5L212.13-26.5Q220.43-25.8 221.23-15.35L221.23-15.35Q221.38-12.45 221.31-10.3 221.23-8.15 221.03-5.55 220.83-2.95 220.83-2.4L220.83-2.4ZM245.73 7.55L245.73 7.55Q245.73 8.6 244.98 9.3 244.23 10 243.18 10 242.13 10 241.43 9.25 240.73 8.5 240.73 7.45L240.73 7.45Q240.93-2.4 240.93-24L240.93-24Q240.93-25.05 241.65-25.78 242.38-26.5 243.43-26.5L243.43-26.5Q244.18-26.5 244.8-25.83 245.43-25.15 245.73-24.15L245.73-24.15 246.43-24.6Q249.43-26.4 252.38-26.55 255.33-26.7 257.68-25.25L257.68-25.25Q259.88-24 261.4-21.75 262.93-19.5 263.63-16.85L263.63-16.85Q264.18-14.95 264.23-12.8 264.28-10.65 263.68-8.8 263.08-6.95 261.93-5.15 260.78-3.35 258.7-2 256.63-0.65 253.93-0.15L253.93-0.15Q249.28 0.7 245.88-1.75L245.88-1.75Q245.83 2.9 245.73 7.55L245.73 7.55ZM253.03-5.05L253.03-5.05Q256.83-5.75 258.35-8.68 259.88-11.6 258.83-15.55L258.83-15.55Q257.78-19.45 255.18-20.9L255.18-20.9Q252.53-22.45 249.03-20.3L249.03-20.3Q247.43-19.35 247.18-19.05L247.18-19.05Q247.03-18.9 246.93-18.78 246.83-18.65 246.58-18.2L246.58-18.2 245.93-17.3 245.93-9.1Q246.18-8.85 246.33-8.55L246.33-8.55Q247.73-6.35 249.28-5.5 250.83-4.65 253.03-5.05L253.03-5.05ZM288.17 0L288.17 0Q287.27-0.05 286.6-0.7 285.92-1.35 285.82-2.9L285.82-2.9Q283.52-0.9 281.07-0.3L281.07-0.3Q277.57 0.6 274.67-1.45L274.67-1.45Q271.87-3.45 270.27-8.05L270.27-8.05Q269.72-9.65 269.42-11.35L269.42-11.35Q269.12-13.1 269.15-15.08 269.17-17.05 269.22-18.28 269.27-19.5 269.47-21.63 269.67-23.75 269.72-24.3L269.72-24.3Q269.82-25.3 270.6-25.98 271.37-26.65 272.4-26.58 273.42-26.5 274.1-25.73 274.77-24.95 274.72-23.9L274.72-23.9Q274.67-23.15 274.45-21.05 274.22-18.95 274.2-17.93 274.17-16.9 274.15-15.23 274.12-13.55 274.35-12.23 274.57-10.9 274.97-9.65L274.97-9.65Q276.07-6.6 277.77-5.5L277.77-5.5Q278.47-5.05 280.07-5.05L280.07-5.05Q282.22-5.4 283.55-6.3 284.87-7.2 286.02-10.4L286.02-10.4Q286.12-17.05 285.87-23.9L285.87-23.9Q285.82-24.95 286.55-25.7 287.27-26.45 288.3-26.5 289.32-26.55 290.07-25.83 290.82-25.1 290.87-24.1L290.87-24.1Q291.27-12.3 290.82-2.35L290.82-2.35Q290.77-1.35 290-0.65 289.22 0.05 288.17 0L288.17 0ZM300.22 0L300.22 0Q299.22 0 298.47-0.68 297.72-1.35 297.72-2.5L297.72-2.5 297.62-12.7Q297.57-16.15 297.57-21.3L297.57-21.3 297.57-24.25Q297.57-25.4 298.27-26.05 298.97-26.7 299.97-26.7L299.97-26.7Q301.02-26.7 301.8-26.03 302.57-25.35 302.57-24.15L302.57-24.15 302.57-22.65Q303.12-23.85 304.62-24.7L304.62-24.7Q306.67-25.95 309.12-25.95L309.12-25.95Q310.97-25.95 311.97-25.35 312.97-24.75 312.97-23.2L312.97-23.2Q312.97-22.2 312.37-21.53 311.77-20.85 310.62-20.85L310.62-20.85Q306.42-20.85 304.82-19.7L304.82-19.7Q303.92-19.1 303.25-18.25 302.57-17.4 302.57-16.6L302.57-16.6 302.67-10.35 302.72-2.5Q302.72-1.35 301.97-0.68 301.22 0 300.22 0L300.22 0ZM320.62 7.55L320.62 7.55Q320.62 8.6 319.87 9.3 319.12 10 318.07 10 317.02 10 316.32 9.25 315.62 8.5 315.62 7.45L315.62 7.45Q315.82-2.4 315.82-24L315.82-24Q315.82-25.05 316.54-25.78 317.27-26.5 318.32-26.5L318.32-26.5Q319.07-26.5 319.69-25.83 320.32-25.15 320.62-24.15L320.62-24.15 321.32-24.6Q324.32-26.4 327.27-26.55 330.22-26.7 332.57-25.25L332.57-25.25Q334.77-24 336.29-21.75 337.82-19.5 338.52-16.85L338.52-16.85Q339.07-14.95 339.12-12.8 339.17-10.65 338.57-8.8 337.97-6.95 336.82-5.15 335.67-3.35 333.59-2 331.52-0.65 328.82-0.15L328.82-0.15Q324.17 0.7 320.77-1.75L320.77-1.75Q320.72 2.9 320.62 7.55L320.62 7.55ZM327.92-5.05L327.92-5.05Q331.72-5.75 333.24-8.68 334.77-11.6 333.72-15.55L333.72-15.55Q332.67-19.45 330.07-20.9L330.07-20.9Q327.42-22.45 323.92-20.3L323.92-20.3Q322.32-19.35 322.07-19.05L322.07-19.05Q321.92-18.9 321.82-18.78 321.72-18.65 321.47-18.2L321.47-18.2 320.82-17.3 320.82-9.1Q321.07-8.85 321.22-8.55L321.22-8.55Q322.62-6.35 324.17-5.5 325.72-4.65 327.92-5.05L327.92-5.05ZM358.22-0.35L358.22-0.35Q351.62 1.25 347.67-3L347.67-3Q344.52-6.25 343.77-11.35L343.77-11.35Q343.22-15.35 344.72-18.95L344.72-18.95Q346.52-23.55 350.42-25.75L350.42-25.75Q351.22-26.2 352.42-26.4L352.42-26.4Q352.47-26.4 353.12-26.45L353.12-26.45Q353.37-26.5 353.52-26.55L353.52-26.55Q354.27-26.7 355.02-26.4L355.02-26.4Q355.22-26.4 355.97-26.38 356.72-26.35 356.97-26.33 357.22-26.3 357.84-26.23 358.47-26.15 358.87-26.05L358.87-26.05 359.82-25.7Q360.42-25.5 360.97-25.2 361.52-24.9 362.17-24.5L362.17-24.5Q365.42-22.3 366.67-18.32 367.92-14.35 367.32-11.9L367.32-11.9Q366.87-9.2 365.72-6.88 364.57-4.55 362.54-2.75 360.52-0.95 358.22-0.35L358.22-0.35ZM356.67-5.55L356.67-5.55Q358.82-5.85 360.34-7.78 361.87-9.7 362.34-11.85 362.82-14 361.99-16.57 361.17-19.15 359.37-20.3L359.37-20.3Q358.82-20.7 358.47-20.88 358.12-21.05 357.64-21.18 357.17-21.3 356.89-21.3 356.62-21.3 355.72-21.35 354.82-21.4 354.12-21.45L354.12-21.45Q353.97-21.45 353.77-21.5L353.77-21.5Q353.22-21.45 353.17-21.45L353.17-21.45 352.82-21.35Q350.62-20.15 349.44-17.53 348.27-14.9 348.77-12.1L348.77-12.1Q349.32-8.7 351.22-6.95L351.22-6.95Q353.27-5.05 356.67-5.55L356.67-5.55ZM378.36 0L378.36 0Q374.66-0.65 373.01-3L373.01-3Q372.21-4.05 371.86-5.8L371.86-5.8 371.66-6.9Q371.56-7.4 371.46-7.7L371.46-7.7Q371.16-8.65 371.66-9.55 372.16-10.45 373.16-10.7 374.16-10.95 375.06-10.5 375.96-10.05 376.26-9.05L376.26-9.05Q376.41-8.5 376.56-7.8L376.56-7.8Q376.61-7.55 376.64-7.33 376.66-7.1 376.81-6.55L376.81-6.55Q376.96-5.9 377.51-5.45L377.51-5.45Q378.11-4.9 379.31-4.75L379.31-4.75Q381.31-4.35 383.61-4.85L383.61-4.85Q385.86-5.35 387.11-6.3L387.11-6.3Q388.01-7.1 387.86-7.95L387.86-7.95Q387.71-9.35 386.11-10.05L386.11-10.05Q385.11-10.5 380.91-11.25L380.91-11.25Q376.56-12.1 374.76-13.45L374.76-13.45Q371.46-15.9 372.61-20.75L372.61-20.75Q373.31-23.55 375.49-24.88 377.66-26.2 380.31-26.35L380.31-26.35Q382.56-26.45 384.89-25.83 387.21-25.2 388.86-24.1L388.86-24.1Q389.41-23.7 390.01-23.15 390.61-22.6 391.19-21.95 391.76-21.3 391.86-21.25L391.86-21.25Q392.61-20.5 392.61-19.53 392.61-18.55 391.89-17.82 391.16-17.1 390.14-17.1 389.11-17.1 388.36-17.8L388.36-17.8Q387.86-18.25 387.36-18.75L387.36-18.75 386.66-19.6Q386.36-19.85 385.96-20.1L385.96-20.1Q385.01-20.7 383.51-21.13 382.01-21.55 380.56-21.5L380.56-21.5Q377.91-21.35 377.51-19.65L377.51-19.65Q377.06-17.85 377.81-17.3L377.81-17.3Q378.71-16.65 381.86-16L381.86-16Q386.51-15.2 388.21-14.45L388.21-14.45Q392.31-12.6 392.86-8.5L392.86-8.5Q393.31-5.15 390.36-2.7L390.36-2.7Q388.11-0.85 384.66-0.15L384.66-0.15Q381.36 0.6 378.36 0L378.36 0ZM410.11 0.25L410.11 0.25Q406.41 0 403.66-1.25 400.91-2.5 399.46-4.4 398.01-6.3 397.36-7.9 396.71-9.5 396.56-11.08 396.41-12.65 396.71-15.15L396.71-15.15Q397.06-17.25 398.19-19.3 399.31-21.35 401.19-22.98 403.06-24.6 405.71-25.48 408.36-26.35 411.36-26L411.36-26Q414.26-25.65 416.31-24.43 418.36-23.2 419.81-21.3L419.81-21.3Q421.06-19.7 421.34-18.9 421.61-18.1 421.84-17.4 422.06-16.7 422.21-16.2 422.36-15.7 422.49-15.18 422.61-14.65 422.66-13.95L422.66-13.95Q422.71-13 422.31-12.2 421.91-11.4 421.11-10.95L421.11-10.95Q420.46-10.7 419.71-10.7L419.71-10.7 411.16-10.55Q402.16-10.5 402.16-10.35L402.16-10.35 402.01-10.35Q402.66-7.8 404.74-6.35 406.81-4.9 410.41-4.65L410.41-4.65Q412.36-4.55 413.66-4.85L413.66-4.85Q415.11-5.25 415.76-5.58 416.41-5.9 417.36-6.45L417.36-6.45Q418.31-6.8 419.26-6.35 420.21-5.9 420.56-4.95 420.91-4 420.49-3.1 420.06-2.2 419.16-1.7L419.16-1.7Q418.36-1.25 417.51-0.93 416.66-0.6 415.01-0.15 413.36 0.3 410.11 0.25L410.11 0.25ZM402.11-15.25L402.11-15.25Q405.01-15.4 417.16-15.55L417.16-15.55Q416.71-17.05 415.71-18.4L415.71-18.4Q413.71-20.7 410.76-21.05L410.76-21.05Q407.66-21.45 405.31-19.73 402.96-18 402.11-15.25L402.11-15.25ZM425.91 7.65L425.91 7.65Q425.01 7.65 424.46 7.05 423.91 6.45 423.91 5.55L423.91 5.55Q423.91 5 424.11 4.55 424.31 4.1 424.76 3.5L424.76 3.5Q425.21 2.85 425.46 2.33 425.71 1.8 425.71 1.2L425.71 1.2Q425.71 0.45 425.31-0.9L425.31-0.9Q425.01-2 425.01-2.35L425.01-2.35Q425.01-3.35 425.68-4.03 426.36-4.7 427.26-4.7L427.26-4.7Q429.16-4.7 429.66-2.95L429.66-2.95Q430.26-0.6 430.26 1L430.26 1Q430.26 2.1 429.88 3.13 429.51 4.15 428.81 5.6L428.81 5.6Q427.76 7.65 425.91 7.65L425.91 7.65ZM468.65 0L468.65 0Q467.85 0 467.2-0.45 466.55-0.9 466.3-2.15L466.3-2.15Q464.15-0.6 461.8-0.15L461.8-0.15Q458.55 0.45 455.85-0.5 453.15-1.45 451.3-3.65L451.3-3.65Q447.95-7.55 448-13.55L448-13.55Q448.05-18.95 451.5-22.85L451.5-22.85Q455.65-27.5 462.4-26.3L462.4-26.3Q464.7-25.9 465.9-25.25L465.9-25.25 465.8-33.25Q465.8-34.3 466.53-35.05 467.25-35.8 468.28-35.8 469.3-35.8 470.05-35.08 470.8-34.35 470.8-33.35L470.8-33.35Q471.15-10.55 471.15-2.5L471.15-2.5Q471.15-1.45 470.43-0.73 469.7 0 468.65 0L468.65 0ZM460.9-5.05L460.9-5.05Q461.85-5.25 462.9-5.75 463.95-6.25 464.38-6.58 464.8-6.9 465.03-7.15 465.25-7.4 465.55-7.73 465.85-8.05 466.1-8.75L466.1-8.75Q466.1-15.1 466-18.85L466-18.85Q465.95-18.85 465.9-18.9L465.9-18.9Q463.8-20.7 463.8-20.75L463.8-20.75Q463.25-21.1 461.5-21.4L461.5-21.4Q457.5-22.1 455.25-19.5L455.25-19.5Q453-17.05 453-13.55L453-13.55Q452.95-9.4 455.1-6.88 457.25-4.35 460.9-5.05L460.9-5.05ZM490 0.25L490 0.25Q486.3 0 483.55-1.25 480.8-2.5 479.35-4.4 477.9-6.3 477.25-7.9 476.6-9.5 476.45-11.08 476.3-12.65 476.6-15.15L476.6-15.15Q476.95-17.25 478.08-19.3 479.2-21.35 481.08-22.98 482.95-24.6 485.6-25.48 488.25-26.35 491.25-26L491.25-26Q494.15-25.65 496.2-24.43 498.25-23.2 499.7-21.3L499.7-21.3Q500.95-19.7 501.23-18.9 501.5-18.1 501.73-17.4 501.95-16.7 502.1-16.2 502.25-15.7 502.38-15.18 502.5-14.65 502.55-13.95L502.55-13.95Q502.6-13 502.2-12.2 501.8-11.4 501-10.95L501-10.95Q500.35-10.7 499.6-10.7L499.6-10.7 491.05-10.55Q482.05-10.5 482.05-10.35L482.05-10.35 481.9-10.35Q482.55-7.8 484.63-6.35 486.7-4.9 490.3-4.65L490.3-4.65Q492.25-4.55 493.55-4.85L493.55-4.85Q495-5.25 495.65-5.58 496.3-5.9 497.25-6.45L497.25-6.45Q498.2-6.8 499.15-6.35 500.1-5.9 500.45-4.95 500.8-4 500.38-3.1 499.95-2.2 499.05-1.7L499.05-1.7Q498.25-1.25 497.4-0.93 496.55-0.6 494.9-0.15 493.25 0.3 490 0.25L490 0.25ZM482-15.25L482-15.25Q484.9-15.4 497.05-15.55L497.05-15.55Q496.6-17.05 495.6-18.4L495.6-18.4Q493.6-20.7 490.65-21.05L490.65-21.05Q487.55-21.45 485.2-19.73 482.85-18 482-15.25L482-15.25ZM512.65 0L512.65 0Q508.95-0.65 507.3-3L507.3-3Q506.5-4.05 506.15-5.8L506.15-5.8 505.95-6.9Q505.85-7.4 505.75-7.7L505.75-7.7Q505.45-8.65 505.95-9.55 506.45-10.45 507.45-10.7 508.45-10.95 509.35-10.5 510.25-10.05 510.55-9.05L510.55-9.05Q510.7-8.5 510.85-7.8L510.85-7.8Q510.9-7.55 510.92-7.33 510.95-7.1 511.1-6.55L511.1-6.55Q511.25-5.9 511.8-5.45L511.8-5.45Q512.4-4.9 513.6-4.75L513.6-4.75Q515.6-4.35 517.9-4.85L517.9-4.85Q520.15-5.35 521.4-6.3L521.4-6.3Q522.3-7.1 522.15-7.95L522.15-7.95Q522-9.35 520.4-10.05L520.4-10.05Q519.4-10.5 515.2-11.25L515.2-11.25Q510.85-12.1 509.05-13.45L509.05-13.45Q505.75-15.9 506.9-20.75L506.9-20.75Q507.6-23.55 509.77-24.88 511.95-26.2 514.6-26.35L514.6-26.35Q516.85-26.45 519.17-25.83 521.5-25.2 523.15-24.1L523.15-24.1Q523.7-23.7 524.3-23.15 524.9-22.6 525.47-21.95 526.05-21.3 526.15-21.25L526.15-21.25Q526.9-20.5 526.9-19.53 526.9-18.55 526.17-17.82 525.45-17.1 524.42-17.1 523.4-17.1 522.65-17.8L522.65-17.8Q522.15-18.25 521.65-18.75L521.65-18.75 520.95-19.6Q520.65-19.85 520.25-20.1L520.25-20.1Q519.3-20.7 517.8-21.13 516.3-21.55 514.85-21.5L514.85-21.5Q512.2-21.35 511.8-19.65L511.8-19.65Q511.35-17.85 512.1-17.3L512.1-17.3Q513-16.65 516.15-16L516.15-16Q520.8-15.2 522.5-14.45L522.5-14.45Q526.6-12.6 527.15-8.5L527.15-8.5Q527.6-5.15 524.65-2.7L524.65-2.7Q522.4-0.85 518.95-0.15L518.95-0.15Q515.65 0.6 512.65 0L512.65 0ZM532.09-2.4L532.09-2.4Q532-6.15 532.12-13.9 532.25-21.65 532.25-24.05L532.25-24.05Q532.25-25.1 532.97-25.83 533.69-26.55 534.75-26.55 535.79-26.55 536.52-25.83 537.25-25.1 537.25-24.05L537.25-24.05Q537.25-21.65 537.12-13.95 537-6.25 537.09-2.5L537.09-2.5Q537.09-1.45 536.39-0.7 535.69 0.05 534.64 0.05 533.59 0.05 532.84-0.65 532.09-1.35 532.09-2.4L532.09-2.4ZM536.75-35.2L536.75-35.2Q537.59-34.35 537.59-33.1 537.59-31.85 536.75-31 535.89-30.15 534.64-30.15 533.39-30.15 532.54-31 531.69-31.85 531.69-33.1 531.69-34.35 532.54-35.2 533.39-36.05 534.67-36.08 535.94-36.1 536.75-35.2L536.75-35.2ZM555.09 10.25L555.09 10.25Q552.19 10.5 549.52 9.6 546.84 8.7 545.09 6.45L545.09 6.45Q544.44 5.6 544.02 4.35 543.59 3.1 544.09 2.18 544.59 1.25 545.57 0.95 546.54 0.65 547.47 1.15 548.39 1.65 548.69 2.6L548.69 2.6Q548.79 3 548.94 3.68 549.09 4.35 550.04 5L550.04 5Q552.29 5.8 554.99 5.7L554.99 5.7Q557.44 5.6 558.74 4.67 560.04 3.75 560.39 2.55L560.39 2.55Q560.89 0.85 561.19-2.85L561.19-2.85Q559.29-0.85 555.44-0.45L555.44-0.45Q552.14-0.3 549.52-1.38 546.89-2.45 545.37-4.45 543.84-6.45 543.14-8.9L543.14-8.9Q542.44-11.25 542.64-14.8L542.64-14.8Q543.04-20.3 546.94-23.65L546.94-23.65Q551.29-27.1 557.44-26.1L557.44-26.1Q559.69-25.35 560.99-24.3L560.99-24.3Q561.04-26.3 562.89-26.75L562.89-26.75Q564.09-26.85 564.82-26.2 565.54-25.55 565.69-24.55L565.69-24.55Q566.24-18.45 566.34-9.65L566.34-9.65Q566.39-4.65 566.04-1.3L566.04-1.3Q565.64 3.7 563.69 6.18 561.74 8.65 559.79 9.33 557.84 10 555.09 10.25L555.09 10.25ZM555.09-5.55L555.09-5.55Q556.94-5.5 557.94-6L557.94-6Q560.84-6.9 561.29-10.75L561.29-10.75Q561.54-13.7 561.04-16.4L561.04-16.4Q560.69-18.1 558.99-19.35L558.99-19.35Q557.99-20.15 556.44-20.4L556.44-20.4Q552.44-21.1 550.29-19.2L550.29-19.2Q548.24-17.55 547.94-14.35L547.94-14.35Q547.69-10.15 549.59-7.8L549.59-7.8Q551.54-5.5 555.09-5.55L555.09-5.55ZM575.24 0L575.24 0Q574.24 0 573.49-0.68 572.74-1.35 572.74-2.5L572.74-2.5Q572.74-6.45 572.69-9.3L572.69-9.3Q572.59-17.8 572.59-24.05L572.59-24.05Q572.59-25.2 573.29-25.85 573.99-26.5 574.99-26.5L574.99-26.5Q576.04-26.5 576.81-25.83 577.59-25.15 577.59-23.95L577.59-23.95 577.59-22.4Q580.69-26.45 585.74-26.45L585.74-26.45Q590.09-26.45 592.41-23.4 594.74-20.35 594.74-15.2L594.74-15.2Q594.74-9.5 594.59-7.7L594.59-7.7 594.34-4.35 594.19-2.2Q594.09-1.2 593.39-0.6 592.69 0 591.74 0L591.74 0Q590.74 0 589.99-0.68 589.24-1.35 589.24-2.5L589.24-2.5Q589.24-3.3 589.59-8.05L589.59-8.05Q589.84-11.3 589.84-13.15L589.84-13.15Q589.84-17.4 588.64-19.43 587.44-21.45 584.94-21.45L584.94-21.45Q583.14-21.45 581.21-20.35 579.29-19.25 577.59-17.55L577.59-17.55 577.69-10.45 577.74-2.5Q577.74-1.35 576.99-0.68 576.24 0 575.24 0L575.24 0ZM620.78 0L620.78 0Q619.83 0 619.08-0.5 618.33-1 618.08-1.8L618.08-1.8Q617.33-4.45 614.73-12.25L614.73-12.25Q612.48-18.95 611.43-23.3L611.43-23.3Q611.03-24.45 611.81-25.43 612.58-26.4 613.93-26.4L613.93-26.4Q615.83-26.4 616.33-24.4L616.33-24.4Q617.68-19.45 619.58-13.85L619.58-13.85Q620.33-11.5 620.58-9.95L620.58-9.95 621.73-13.45 622.43-15.55Q622.38-15.4 623.53-19L623.53-19Q623.83-19.9 624.13-20.88 624.43-21.85 624.78-22.85L624.78-22.85Q625.63-25.2 627.78-25.2L627.78-25.2Q628.83-25.2 629.51-24.6 630.18-24 630.68-22.6L630.68-22.6Q633.03-16 635.18-8.55L635.18-8.55 636.28-13.05Q636.68-14.85 637.18-16.95L637.18-16.95Q638.18-21.15 639.13-24.4L639.13-24.4Q639.38-25.35 640.03-25.9 640.68-26.45 641.48-26.45L641.48-26.45Q642.73-26.45 643.43-25.5 644.13-24.55 643.73-23.25L643.73-23.25Q643.68-23.15 643.33-21.45L643.33-21.45Q642.78-19 642.08-16.45L642.08-16.45 640.98-12.45Q639.08-5.35 638.23-2.85L638.23-2.85Q637.13 0 635.18 0L635.18 0Q634.13 0 633.33-0.65 632.53-1.3 632.13-2.45L632.13-2.45 631.33-4.9Q630.18-8.3 627.33-16.95L627.33-16.95 626.48-13.95Q624.18-6.05 623.68-3.8L623.68-3.8Q623.23-1.9 622.48-0.95 621.73 0 620.78 0L620.78 0ZM647.88-2.4L647.88-2.4Q647.78-6.15 647.91-13.9 648.03-21.65 648.03-24.05L648.03-24.05Q648.03-25.1 648.76-25.83 649.48-26.55 650.53-26.55 651.58-26.55 652.31-25.83 653.03-25.1 653.03-24.05L653.03-24.05Q653.03-21.65 652.91-13.95 652.78-6.25 652.88-2.5L652.88-2.5Q652.88-1.45 652.18-0.7 651.48 0.05 650.43 0.05 649.38 0.05 648.63-0.65 647.88-1.35 647.88-2.4L647.88-2.4ZM652.53-35.2L652.53-35.2Q653.38-34.35 653.38-33.1 653.38-31.85 652.53-31 651.68-30.15 650.43-30.15 649.18-30.15 648.33-31 647.48-31.85 647.48-33.1 647.48-34.35 648.33-35.2 649.18-36.05 650.46-36.08 651.73-36.1 652.53-35.2L652.53-35.2ZM667.83-0.15L667.83-0.15Q667.53-0.25 666.6-0.45 665.68-0.65 665-0.9 664.33-1.15 663.45-1.63 662.58-2.1 661.88-2.93 661.18-3.75 660.68-4.9L660.68-4.9Q660.13-6.25 659.98-10.2L659.98-10.2Q659.83-13.25 659.93-18.05L659.93-18.05Q659.93-18.95 659.98-21.05L659.98-21.05 659.58-21Q658.53-20.9 657.73-21.55 656.93-22.2 656.8-23.23 656.68-24.25 657.33-25.05 657.98-25.85 658.98-26L658.98-26 660.13-26.1Q660.18-28.75 660.28-31.45L660.28-31.45Q660.33-32.5 661.08-33.2 661.83-33.9 662.88-33.85 663.93-33.8 664.63-33.05 665.33-32.3 665.28-31.25L665.28-31.25 665.13-26.5 666.78-26.6Q667.83-26.65 668.6-26 669.38-25.35 669.45-24.3 669.53-23.25 668.88-22.48 668.23-21.7 667.18-21.6L667.18-21.6 664.98-21.5Q664.93-19.1 664.93-18L664.93-18Q664.83-13.3 664.98-10.35L664.98-10.35Q665.08-7.35 665.28-6.9 665.48-6.45 665.58-6.28 665.68-6.1 665.95-5.93 666.23-5.75 666.53-5.7 666.83-5.65 667.65-5.43 668.48-5.2 669.43-4.85L669.43-4.85Q670.38-4.55 670.85-3.63 671.33-2.7 671-1.73 670.68-0.75 669.75-0.28 668.83 0.2 667.83-0.15L667.83-0.15ZM696.13-2.4L696.13-2.4Q696.08-1.35 695.33-0.65 694.58 0.05 693.55 0.03 692.53 0 691.83-0.75 691.13-1.5 691.13-2.5L691.13-2.5Q691.13-2.55 691.43-7.2L691.43-7.2Q691.73-12.3 691.53-14.95L691.53-14.95Q691.08-21.2 686.93-21.5L686.93-21.5Q684.73-21.65 683.3-20.83 681.88-20 680.53-17.95L680.53-17.95Q680.43-17.8 680.13-17.25L680.13-17.25Q680.48-6.45 680.48-2.45L680.48-2.45Q680.48-1.4 679.75-0.68 679.03 0.05 677.98 0.05 676.93 0.05 676.2-0.68 675.48-1.4 675.48-2.45L675.48-2.45Q675.48-4.75 675.08-18L675.08-18Q674.78-27.95 674.98-33.8L674.98-33.8Q675.03-34.8 675.78-35.52 676.53-36.25 677.55-36.2 678.58-36.15 679.3-35.4 680.03-34.65 679.98-33.6L679.98-33.6Q679.93-32.25 679.93-23.15L679.93-23.15Q683.13-26.85 687.43-26.5L687.43-26.5Q695.73-25.8 696.53-15.35L696.53-15.35Q696.68-12.45 696.6-10.3 696.53-8.15 696.33-5.55 696.13-2.95 696.13-2.4L696.13-2.4ZM721.02 7.55L721.02 7.55Q721.02 8.6 720.27 9.3 719.52 10 718.47 10 717.42 10 716.72 9.25 716.02 8.5 716.02 7.45L716.02 7.45Q716.22-2.4 716.22-24L716.22-24Q716.22-25.05 716.95-25.78 717.67-26.5 718.72-26.5L718.72-26.5Q719.47-26.5 720.1-25.83 720.72-25.15 721.02-24.15L721.02-24.15 721.72-24.6Q724.72-26.4 727.67-26.55 730.62-26.7 732.97-25.25L732.97-25.25Q735.17-24 736.7-21.75 738.22-19.5 738.92-16.85L738.92-16.85Q739.47-14.95 739.52-12.8 739.57-10.65 738.97-8.8 738.37-6.95 737.22-5.15 736.07-3.35 734-2 731.92-0.65 729.22-0.15L729.22-0.15Q724.57 0.7 721.17-1.75L721.17-1.75Q721.12 2.9 721.02 7.55L721.02 7.55ZM728.32-5.05L728.32-5.05Q732.12-5.75 733.65-8.68 735.17-11.6 734.12-15.55L734.12-15.55Q733.07-19.45 730.47-20.9L730.47-20.9Q727.82-22.45 724.32-20.3L724.32-20.3Q722.72-19.35 722.47-19.05L722.47-19.05Q722.32-18.9 722.22-18.78 722.12-18.65 721.87-18.2L721.87-18.2 721.22-17.3 721.22-9.1Q721.47-8.85 721.62-8.55L721.62-8.55Q723.02-6.35 724.57-5.5 726.12-4.65 728.32-5.05L728.32-5.05ZM758.92-0.8L758.92-0.8Q757.12-0.1 754.84 0 752.57 0.1 750.62-0.53 748.67-1.15 747.17-2.45L747.17-2.45Q744.57-4.6 743.82-7.8 743.07-11 743.77-13.55 744.47-16.1 745.89-18.53 747.32-20.95 748.99-22.63 750.67-24.3 752.87-25.45 755.07-26.6 757.47-26.58 759.87-26.55 762.52-25.25L762.52-25.25Q762.92-25.05 763.39-24.65 763.87-24.25 764.22-23.95L764.22-23.95 764.87-23.3Q765.17-23 765.17-22.95L765.17-22.95Q765.97-22.25 766.02-21.15L766.02-21.15Q766.67-18.15 766.87-14.85 767.07-11.55 766.99-8.65 766.92-5.75 767.07-2.5L767.07-2.5Q767.12-1.5 766.42-0.75 765.72 0 764.67 0.05 763.62 0.1 762.87-0.6 762.12-1.3 762.07-2.3L762.07-2.3 762.07-3.05Q760.57-1.5 758.92-0.8L758.92-0.8ZM756.67-5.3L756.67-5.3Q757.42-5.5 757.87-5.7 758.32-5.9 758.99-6.3 759.67-6.7 760.42-7.3 761.17-7.9 761.77-8.8L761.77-8.8Q761.87-8.9 762.02-9L762.02-9Q762.02-15.75 761.17-19.85L761.17-19.85Q761.02-20.05 760.84-20.23 760.67-20.4 760.59-20.5 760.52-20.6 760.39-20.68 760.27-20.75 760.12-20.85L760.12-20.85Q757.72-22.15 755.07-20.93 752.42-19.7 750.42-16.35L750.42-16.35Q748.42-12.95 748.44-10.43 748.47-7.9 750.37-6.25L750.37-6.25Q751.52-5.3 753.22-5.05 754.92-4.8 756.67-5.3L756.67-5.3ZM778.67 0L778.67 0Q774.97-0.65 773.32-3L773.32-3Q772.52-4.05 772.17-5.8L772.17-5.8 771.97-6.9Q771.87-7.4 771.77-7.7L771.77-7.7Q771.47-8.65 771.97-9.55 772.47-10.45 773.47-10.7 774.47-10.95 775.37-10.5 776.27-10.05 776.57-9.05L776.57-9.05Q776.72-8.5 776.87-7.8L776.87-7.8Q776.92-7.55 776.94-7.33 776.97-7.1 777.12-6.55L777.12-6.55Q777.27-5.9 777.82-5.45L777.82-5.45Q778.42-4.9 779.62-4.75L779.62-4.75Q781.62-4.35 783.92-4.85L783.92-4.85Q786.17-5.35 787.42-6.3L787.42-6.3Q788.32-7.1 788.17-7.95L788.17-7.95Q788.02-9.35 786.42-10.05L786.42-10.05Q785.42-10.5 781.22-11.25L781.22-11.25Q776.87-12.1 775.07-13.45L775.07-13.45Q771.77-15.9 772.92-20.75L772.92-20.75Q773.62-23.55 775.79-24.88 777.97-26.2 780.62-26.35L780.62-26.35Q782.87-26.45 785.19-25.83 787.52-25.2 789.17-24.1L789.17-24.1Q789.72-23.7 790.32-23.15 790.92-22.6 791.49-21.95 792.07-21.3 792.17-21.25L792.17-21.25Q792.92-20.5 792.92-19.53 792.92-18.55 792.19-17.82 791.47-17.1 790.44-17.1 789.42-17.1 788.67-17.8L788.67-17.8Q788.17-18.25 787.67-18.75L787.67-18.75 786.97-19.6Q786.67-19.85 786.27-20.1L786.27-20.1Q785.32-20.7 783.82-21.13 782.32-21.55 780.87-21.5L780.87-21.5Q778.22-21.35 777.82-19.65L777.82-19.65Q777.37-17.85 778.12-17.3L778.12-17.3Q779.02-16.65 782.17-16L782.17-16Q786.82-15.2 788.52-14.45L788.52-14.45Q792.62-12.6 793.17-8.5L793.17-8.5Q793.62-5.15 790.67-2.7L790.67-2.7Q788.42-0.85 784.97-0.15L784.97-0.15Q781.67 0.6 778.67 0L778.67 0ZM803.41 0L803.41 0Q799.71-0.65 798.06-3L798.06-3Q797.26-4.05 796.91-5.8L796.91-5.8 796.71-6.9Q796.61-7.4 796.51-7.7L796.51-7.7Q796.21-8.65 796.71-9.55 797.21-10.45 798.21-10.7 799.21-10.95 800.11-10.5 801.01-10.05 801.31-9.05L801.31-9.05Q801.46-8.5 801.61-7.8L801.61-7.8Q801.66-7.55 801.69-7.33 801.71-7.1 801.86-6.55L801.86-6.55Q802.01-5.9 802.56-5.45L802.56-5.45Q803.16-4.9 804.36-4.75L804.36-4.75Q806.36-4.35 808.66-4.85L808.66-4.85Q810.91-5.35 812.16-6.3L812.16-6.3Q813.06-7.1 812.91-7.95L812.91-7.95Q812.76-9.35 811.16-10.05L811.16-10.05Q810.16-10.5 805.96-11.25L805.96-11.25Q801.61-12.1 799.81-13.45L799.81-13.45Q796.51-15.9 797.66-20.75L797.66-20.75Q798.36-23.55 800.54-24.88 802.71-26.2 805.36-26.35L805.36-26.35Q807.61-26.45 809.94-25.83 812.26-25.2 813.91-24.1L813.91-24.1Q814.46-23.7 815.06-23.15 815.66-22.6 816.24-21.95 816.81-21.3 816.91-21.25L816.91-21.25Q817.66-20.5 817.66-19.53 817.66-18.55 816.94-17.82 816.21-17.1 815.19-17.1 814.16-17.1 813.41-17.8L813.41-17.8Q812.91-18.25 812.41-18.75L812.41-18.75 811.71-19.6Q811.41-19.85 811.01-20.1L811.01-20.1Q810.06-20.7 808.56-21.13 807.06-21.55 805.61-21.5L805.61-21.5Q802.96-21.35 802.56-19.65L802.56-19.65Q802.11-17.85 802.86-17.3L802.86-17.3Q803.76-16.65 806.91-16L806.91-16Q811.56-15.2 813.26-14.45L813.26-14.45Q817.36-12.6 817.91-8.5L817.91-8.5Q818.36-5.15 815.41-2.7L815.41-2.7Q813.16-0.85 809.71-0.15L809.71-0.15Q806.41 0.6 803.41 0L803.41 0ZM822.86-2.4L822.86-2.4Q822.76-6.15 822.89-13.9 823.01-21.65 823.01-24.05L823.01-24.05Q823.01-25.1 823.74-25.83 824.46-26.55 825.51-26.55 826.56-26.55 827.29-25.83 828.01-25.1 828.01-24.05L828.01-24.05Q828.01-21.65 827.89-13.95 827.76-6.25 827.86-2.5L827.86-2.5Q827.86-1.45 827.16-0.7 826.46 0.05 825.41 0.05 824.36 0.05 823.61-0.65 822.86-1.35 822.86-2.4L822.86-2.4ZM827.51-35.2L827.51-35.2Q828.36-34.35 828.36-33.1 828.36-31.85 827.51-31 826.66-30.15 825.41-30.15 824.16-30.15 823.31-31 822.46-31.85 822.46-33.1 822.46-34.35 823.31-35.2 824.16-36.05 825.44-36.08 826.71-36.1 827.51-35.2L827.51-35.2ZM848.11-0.35L848.11-0.35Q841.51 1.25 837.56-3L837.56-3Q834.41-6.25 833.66-11.35L833.66-11.35Q833.11-15.35 834.61-18.95L834.61-18.95Q836.41-23.55 840.31-25.75L840.31-25.75Q841.11-26.2 842.31-26.4L842.31-26.4Q842.36-26.4 843.01-26.45L843.01-26.45Q843.26-26.5 843.41-26.55L843.41-26.55Q844.16-26.7 844.91-26.4L844.91-26.4Q845.11-26.4 845.86-26.38 846.61-26.35 846.86-26.33 847.11-26.3 847.73-26.23 848.36-26.15 848.76-26.05L848.76-26.05 849.71-25.7Q850.31-25.5 850.86-25.2 851.41-24.9 852.06-24.5L852.06-24.5Q855.31-22.3 856.56-18.32 857.81-14.35 857.21-11.9L857.21-11.9Q856.76-9.2 855.61-6.88 854.46-4.55 852.43-2.75 850.41-0.95 848.11-0.35L848.11-0.35ZM846.56-5.55L846.56-5.55Q848.71-5.85 850.23-7.78 851.76-9.7 852.23-11.85 852.71-14 851.88-16.57 851.06-19.15 849.26-20.3L849.26-20.3Q848.71-20.7 848.36-20.88 848.01-21.05 847.53-21.18 847.06-21.3 846.78-21.3 846.51-21.3 845.61-21.35 844.71-21.4 844.01-21.45L844.01-21.45Q843.86-21.45 843.66-21.5L843.66-21.5Q843.11-21.45 843.06-21.45L843.06-21.45 842.71-21.35Q840.51-20.15 839.33-17.53 838.16-14.9 838.66-12.1L838.66-12.1Q839.21-8.7 841.11-6.95L841.11-6.95Q843.16-5.05 846.56-5.55L846.56-5.55ZM865.56 0L865.56 0Q864.56 0 863.81-0.68 863.06-1.35 863.06-2.5L863.06-2.5Q863.06-6.45 863.01-9.3L863.01-9.3Q862.91-17.8 862.91-24.05L862.91-24.05Q862.91-25.2 863.61-25.85 864.31-26.5 865.31-26.5L865.31-26.5Q866.36-26.5 867.13-25.83 867.91-25.15 867.91-23.95L867.91-23.95 867.91-22.4Q871.01-26.45 876.06-26.45L876.06-26.45Q880.41-26.45 882.73-23.4 885.06-20.35 885.06-15.2L885.06-15.2Q885.06-9.5 884.91-7.7L884.91-7.7 884.66-4.35 884.51-2.2Q884.41-1.2 883.71-0.6 883.01 0 882.06 0L882.06 0Q881.06 0 880.31-0.68 879.56-1.35 879.56-2.5L879.56-2.5Q879.56-3.3 879.91-8.05L879.91-8.05Q880.16-11.3 880.16-13.15L880.16-13.15Q880.16-17.4 878.96-19.43 877.76-21.45 875.26-21.45L875.26-21.45Q873.46-21.45 871.53-20.35 869.61-19.25 867.91-17.55L867.91-17.55 868.01-10.45 868.06-2.5Q868.06-1.35 867.31-0.68 866.56 0 865.56 0L865.56 0ZM894.7-4.95L894.7-4.95Q895.6-4.1 895.6-2.93 895.6-1.75 894.75-0.9 893.9-0.05 892.7-0.05 891.5-0.05 890.68-0.9 889.85-1.75 889.85-2.93 889.85-4.1 890.68-4.95 891.5-5.8 892.7-5.8 893.9-5.8 894.7-4.95L894.7-4.95Z" opacity="1" transform="matrix(1,0,0,1,0,0)" fill="#000000" class="undefined-text-1" data-fill-palette-color="secondary" id="text-1"></path></svg></g></svg></g></svg></g></svg></g><g></g></svg></g></svg></g></svg></g><g><path d="M131.598 58.181A122.216 122.216 0 0 1 263.922 58.181L257.686 58.181A115.98 115.98 0 0 0 137.834 58.181L131.598 58.181M131.598 189.019A122.216 122.216 0 0 0 263.922 189.019L257.686 189.019A115.98 115.98 0 0 1 137.834 189.019L131.598 189.019" fill="#ee3e38" stroke="transparent" data-fill-palette-color="tertiary"></path></g></svg></g><defs></defs></svg><rect width="395.52" height="247.2" fill="none" stroke="none" visibility="hidden"></rect></g></svg></g></svg>