<svg xmlns="http://www.w3.org/2000/svg" version="1.1" xmlns:xlink="http://www.w3.org/1999/xlink" xmlns:svgjs="http://svgjs.dev/svgjs" width="1000" height="1000" viewBox="0 0 1000 1000"><rect width="1000" height="1000" fill="#ca3433"></rect><g transform="matrix(0.7,0,0,0.7,149.5758946664797,307.3475361062674)"><svg viewBox="0 0 396 218" data-background-color="#ca3433" preserveAspectRatio="xMidYMid meet" height="550" width="1000" xmlns="http://www.w3.org/2000/svg" xmlns:xlink="http://www.w3.org/1999/xlink"><g id="tight-bounds" transform="matrix(1,0,0,1,0.2400777274488064,0.08633020476287356)"><svg viewBox="0 0 395.52 217.82733959047425" height="217.82733959047425" width="395.52"><g><svg viewBox="0 0 395.52 217.82733959047425" height="217.82733959047425" width="395.52"><g><svg viewBox="0 0 395.52 217.82733959047425" height="217.82733959047425" width="395.52"><g><svg viewBox="0 0 395.52 217.82733959047425" height="217.82733959047425" width="395.52"><g><svg viewBox="0 0 395.52 159.52640000000002" height="159.52640000000002" width="395.52"><g transform="matrix(1,0,0,1,0,0)"><svg width="395.52" viewBox="0.9 -38.65 134.98999999999998 54.45" height="159.52640000000002" data-palette-color="#f7e1e1"><path d="M33.2-22.25L33.2-22.25Q34.35-22.25 34.35-20.8L34.35-20.8Q34.35-19.25 33.1-17.9L33.1-17.9Q30.9-15.45 29.05-11.75L29.05-11.75Q26.25-6.15 26.25-1.65L26.25-1.65Q26.25 0.1 26.88 0.9 27.5 1.7 28.3 1.7L28.3 1.7Q30.7 1.7 33.9-2.2L33.9-2.2Q36.75-5.85 38.25-9.3L38.25-9.3Q38.65-10.1 39.05-10 39.45-9.9 39.1-9.1L39.1-9.1Q37.05-4.55 34.45-1.1L34.45-1.1Q33.1 0.75 31.1 1.98 29.1 3.2 27.13 3.2 25.15 3.2 24.15 1.63 23.15 0.05 23.15-2.1 23.15-4.25 23.68-6.35 24.2-8.45 25.05-9.6L25.05-9.6Q20-3.55 14.3 0.1L14.3 0.1Q11.3 1.95 7.65 2.3L7.65 2.3Q7.3 2.35 6.48 2.35 5.65 2.35 4.5 1.75L4.5 1.75Q0.9 0.25 0.9-5.58 0.9-11.4 4.7-18.2L4.7-18.2Q6.7-21.8 9.1-24.55L9.1-24.55Q5.75-26.15 4.1-28L4.1-28Q2.9-29.35 2.9-31.25 2.9-33.15 3.65-33.65L3.65-33.65Q4.15-34.3 4.55-33.9L4.55-33.9Q4.85-33.45 4.58-32.8 4.3-32.15 4.3-31.55L4.3-31.55Q4.3-30.2 5.75-28.55 7.2-26.9 10-25.6L10-25.6Q21.75-38.65 34.4-38.65L34.4-38.65Q38.35-38.65 40.68-36.88 43-35.1 43-32.3L43-32.3Q43-29.25 39.6-26.4L39.6-26.4Q37.9-24.9 34.75-23.8L34.75-23.8Q29.95-22.1 23.33-22.1 16.7-22.1 12.35-23.5L12.35-23.5Q7.3-16.35 5.4-11.63 3.5-6.9 3.5-4.3L3.5-4.3Q3.5-3.75 3.55-3.3L3.55-3.3Q4.15 0.85 7.75 0.85L7.75 0.85Q11.8 0.85 17.15-3.55L17.15-3.55Q20.95-6.75 24.6-11.15 28.25-15.55 30.03-18.9 31.8-22.25 33.2-22.25ZM40.95-32.9L40.95-32.9Q40.95-35.05 39.18-36.2 37.4-37.35 34.3-37.35 31.2-37.35 28.13-36.35 25.05-35.35 22.38-33.4 19.7-31.45 17.63-29.4 15.55-27.35 13.15-24.5L13.15-24.5Q16.9-23.3 22.35-23.3L22.35-23.3Q32.6-23.3 37.3-26.6L37.3-26.6Q40.95-29.15 40.95-32.9ZM45.15-20.05L45.15-20.05Q45.15-17.8 42.3-15.8L42.3-15.8Q43.3-15.75 44.97-15.75 46.65-15.75 49.2-16L49.2-16Q49.3-15.85 49.3-15.2 49.3-14.55 48.7-13.28 48.1-12 47.62-11.08 47.15-10.15 46.72-9.33 46.3-8.5 45.77-7.3 45.25-6.1 44.9-5.1L44.9-5.1Q43.65-1.3 45.3-1.3L45.3-1.3Q47.4-1.3 51.5-9.65L51.5-9.65Q51.85-10.3 52.07-10.15 52.3-10 52.3-9.78 52.3-9.55 51.65-8.22 51-6.9 50.25-5.5 49.5-4.1 47.9-2.25L47.9-2.25Q46 0.05 44.25 0.05L44.25 0.05Q42.3 0.05 41.55-2.3L41.55-2.3Q41.4-2.75 41.4-3.65 41.4-4.55 41.97-6.05 42.55-7.55 43.8-9.7 45.05-11.85 45.2-12.23 45.35-12.6 45.35-12.95L45.35-12.95Q45.35-14.5 41.35-14.6L41.35-14.6 40.75-13Q37.6-4.75 34.7-1.95L34.7-1.95Q34.2-1.5 34.2-2.25L34.2-2.25Q34.2-2.4 34.3-2.6L34.3-2.6Q37.1-6.3 39.15-11.35 41.2-16.4 42-20.95L42-20.95Q42.3-22.5 43.4-22.5 44.5-22.5 45-21.1L45-21.1Q45.15-20.65 45.15-20.05ZM44.5 15.8L44.5 15.8Q42.3 15.8 41.1 14.88 39.9 13.95 39.9 12.65 39.9 11.35 40.65 9.7L40.65 9.7Q41.95 7.15 45.35 5.6L45.35 5.6Q47.9 4.4 52.1 3.38 56.3 2.35 57.5 2L57.5 2Q59.3-1.15 61.8-9.25L61.8-9.25Q58.9-4.15 56.95-2.1 55-0.05 53-0.05L53-0.05Q50.3-0.05 49.85-2.3L49.85-2.3Q49.65-2.65 49.75-3.35 49.85-4.05 49.87-4.35 49.9-4.65 50.2-5.33 50.5-6 50.6-6.3L50.6-6.3Q51.15-7.45 51.55-8.1L51.55-8.1Q50.75-8.1 51.1-8.9L51.1-8.9 52-10.65Q53.7-13.9 54.8-16.15L54.8-16.15Q55.3-17.2 56.75-17.2L56.75-17.2 59.8-17.2Q59.7-17.1 59.3-16.8L59.3-16.8Q58.4-16.2 57.95-15.4L57.95-15.4Q56.15-12.3 53.45-6.55L53.45-6.55Q52.35-4.2 52.35-3.1 52.35-2 52.72-1.55 53.1-1.1 53.75-1.1L53.75-1.1Q54.7-1.1 56.4-3.1L56.4-3.1Q59.95-7.25 64.25-16.15L64.25-16.15Q64.8-17.2 66.2-17.2L66.2-17.2 68.9-17.2Q67.59-16.3 66.84-14.93 66.09-13.55 65.22-11.2 64.34-8.85 63.02-4.95 61.7-1.05 61 0.9L61 0.9Q65.7-0.5 68.2-4.05L68.2-4.05Q69.3-5.6 71.34-9.55L71.34-9.55Q71.7-10.25 71.97-10.1 72.25-9.95 72.25-9.7 72.25-9.45 71.42-7.78 70.59-6.1 69.75-4.67 68.9-3.25 67.55-1.75 66.2-0.25 64.55 0.63 62.9 1.5 60.15 2.5L60.15 2.5Q56.3 9.5 52.4 12.8L52.4 12.8Q48.75 15.8 44.5 15.8ZM41.6 10.85L41.6 10.85Q41.05 11.95 41.05 12.88 41.05 13.8 41.75 14.3 42.45 14.8 43.5 14.8L43.5 14.8Q46.4 14.8 49.7 11.83 53 8.85 55.5 5.45L55.5 5.45 56.6 3.6Q48.35 5.75 46.2 6.7L46.2 6.7Q43 8.1 41.6 10.85ZM86.59-13.55Q85.69-12.65 84.04-9.47 82.39-6.3 82.07-4.73 81.74-3.15 81.74-2.18 81.74-1.2 82.49-1.2L82.49-1.2Q83.44-1.2 84.84-2.95L84.84-2.95Q86.89-5.5 88.89-9.6L88.89-9.6Q89.09-10.05 89.34-10.1L89.34-10.1Q89.74-10.25 89.74-9.8L89.74-9.8Q89.74-9.55 89.59-9.2L89.59-9.2Q84.99 0.1 81.84 0.1L81.84 0.1Q80.39 0.1 79.49-1.3L79.49-1.3Q79.04-2.05 79.04-3.3 79.04-4.55 79.54-6.35L79.54-6.35Q75.54 0.1 72.64 0.1L72.64 0.1Q71.84 0.1 71.19-0.4L71.19-0.4Q69.69-1.45 69.69-4L69.69-4Q69.69-8.9 73.94-13.95L73.94-13.95Q76.34-16.75 79.84-17.6L79.84-17.6Q80.79-17.85 81.64-17.85L81.64-17.85Q83.94-17.85 85.54-16.25L85.54-16.25Q86.04-15.7 85.84-15.2 85.64-14.7 84.99-14.8L84.99-14.8Q84.44-16.6 82.59-16.6L82.59-16.6Q80.44-16.6 77.29-13.2L77.29-13.2Q75.49-11.2 73.94-8.5L73.94-8.5Q71.99-5.25 71.99-3.3 71.99-1.35 73.24-1.35L73.24-1.35Q76.24-1.35 81.09-10.55L81.09-10.55Q82.04-12.4 82.69-13.08 83.34-13.75 84.34-13.75L84.34-13.75Q84.54-13.75 85.37-13.6 86.19-13.45 86.59-13.55L86.59-13.55ZM103.99-16.4L103.99-16.4Q97.84-5.6 97.84-2.3L97.84-2.3Q97.84-1 98.79-1L98.79-1Q101.34-1 105.64-9.65L105.64-9.65Q105.94-10.35 106.24-10.2 106.54-10.05 106.54-9.8 106.54-9.55 106.34-9.2L106.34-9.2Q103.69-3.85 101.87-1.83 100.04 0.2 98.22 0.2 96.39 0.2 95.44-1.2L95.44-1.2Q94.94-1.85 94.94-2.98 94.94-4.1 95.44-5.7 95.94-7.3 98.19-10.9L98.19-10.9Q98.74-11.8 98.74-12.33 98.74-12.85 97.89-12.85 97.04-12.85 94.64-10.6L94.64-10.6Q91.04-7.3 87.69-0.7L87.69-0.7Q87.39-0.2 87.02-0.08 86.64 0.05 85.54 0.1 84.44 0.15 84.09 0.35L84.09 0.35Q84.89-1.25 87.24-6.2L87.24-6.2Q91.44-14.95 92.74-16.2L92.74-16.2Q93.34-16.8 94.39-16.8L94.39-16.8Q94.59-16.8 95.42-16.65 96.24-16.5 96.64-16.6L96.64-16.6Q94.79-15.6 90.59-7.2L90.59-7.2Q92.94-10.1 94.87-11.83 96.79-13.55 99.49-15.03 102.19-16.5 103.44-16.5L103.44-16.5Q103.74-16.5 103.99-16.4ZM109.89-0.95L109.89-0.95Q110.54-0.85 110.79-0.85L110.79-0.85Q112.79-0.85 114.74-3.2L114.74-3.2Q115.79-4.5 118.49-9.75L118.49-9.75Q118.59-10 118.84-10L118.84-10Q119.29-10.05 119.29-9.65L119.29-9.65Q119.29-9.55 119.06-9.08 118.84-8.6 118.64-8.13 118.44-7.65 117.99-6.75 117.54-5.85 117.21-5.3 116.89-4.75 116.39-3.95 115.89-3.15 115.39-2.7L115.39-2.7 114.34-1.6Q113.49-0.75 112.34-0.4L112.34-0.4Q110.49 0.2 108.74-0.3L108.74-0.3Q107.59 0.2 106.69 0.2L106.69 0.2Q103.14 0.2 102.39-2.6L102.39-2.6Q102.24-3.25 102.24-4.17 102.24-5.1 102.86-5.95 103.49-6.8 104.19-6.85L104.19-6.85Q106.74-11.7 108.54-15.6L108.54-15.6Q110.54-19.85 113.19-19.85L113.19-19.85Q113.89-19.85 114.56-19.53 115.24-19.2 115.06-18.8 114.89-18.4 114.34-18.65 113.79-18.9 113.39-18.9 112.99-18.9 112.69-18.75L112.69-18.75Q110.99-17.95 110.99-15.3L110.99-15.3Q110.99-13.9 111.39-13 111.79-12.1 112.29-11.05L112.29-11.05Q113.44-8.45 113.44-6.8L113.44-6.8Q113.44-5.15 112.39-3.55 111.34-1.95 109.89-0.95ZM108.19-1.3L108.19-1.3Q110.39-3 110.39-6.8L110.39-6.8Q110.39-8.35 110.04-11.05 109.69-13.75 109.69-14.7 109.69-15.65 109.74-16L109.74-16Q105.94-8.4 105.04-6.75L105.04-6.75Q106.09-6.75 106.09-5.25L106.09-5.25Q106.09-2.3 108.19-1.3ZM104.44-2.65L104.44-2.65Q104.44-2.35 104.49-2L104.49-2Q104.89-0.65 106.34-0.65L106.34-0.65Q106.94-0.65 107.34-0.85L107.34-0.85Q105.49-2 105.34-4.6L105.34-4.6Q104.44-3.7 104.44-2.65ZM127.34-2.25L127.34-2.25Q127.34-0.85 128.34-0.85L128.34-0.85Q130.69-0.85 134.99-9.65L134.99-9.65Q135.34-10.35 135.61-10.2 135.89-10.05 135.89-9.8 135.89-9.55 135.31-8.38 134.74-7.2 134.16-6.13 133.59-5.05 132.49-3.3L132.49-3.3Q130.19 0.2 127.59 0.2L127.59 0.2Q125.89 0.2 124.89-1.2L124.89-1.2Q124.44-1.85 124.44-2.98 124.44-4.1 124.94-5.7 125.44-7.3 127.69-10.9L127.69-10.9Q128.24-11.8 128.24-12.33 128.24-12.85 127.39-12.85 126.54-12.85 124.14-10.6L124.14-10.6Q120.54-7.3 117.14-0.7L117.14-0.7Q116.79 0.05 115.29 0.05L115.29 0.05Q113.94 0.15 113.59 0.35L113.59 0.35Q123.09-19.4 127.34-27.2L127.34-27.2Q128.29-28.95 129.01-29.65 129.74-30.35 130.74-30.35L130.74-30.35Q130.99-30.35 131.79-30.23 132.59-30.1 132.99-30.15L132.99-30.15Q131.49-28.6 127.61-21.58 123.74-14.55 120.19-7.3L120.19-7.3Q122.54-10.25 124.41-11.9 126.29-13.55 128.99-15.03 131.69-16.5 132.94-16.5L132.94-16.5Q133.24-16.5 133.49-16.4L133.49-16.4Q127.34-5.6 127.34-2.25Z" opacity="1" transform="matrix(1,0,0,1,0,0)" fill="#f7e1e1" class="undefined-text-0" data-fill-palette-color="primary" id="text-0"></path></svg></g></svg></g><g transform="matrix(1,0,0,1,0,197.18675440640004)"><svg viewBox="0 0 395.52 20.640585184074222" height="20.640585184074222" width="395.52"><g transform="matrix(1,0,0,1,0,0)"><svg width="395.52" viewBox="2.83 -35.39 892.63 46.59" height="20.640585184074222" data-palette-color="#ff908b"><path d="M18.81-30.28L18.81-30.28Q13.32-30.28 10.15-26.62 6.98-22.95 6.98-16.52 6.98-10.09 10.04-6.53 13.09-2.98 18.76-2.98L18.76-2.98Q22.3-2.98 26.72-4.22L26.72-4.22 26.72-0.83Q23.26 0.46 18.17 0.46L18.17 0.46Q10.82 0.46 6.83-3.99L6.83-3.99Q2.83-8.49 2.83-16.68L2.83-16.68Q2.81-20.48 3.93-23.67 5.06-26.87 7.13-29.1 9.2-31.32 12.21-32.55 15.22-33.77 18.86-33.75L18.86-33.75Q24.14-33.75 28.01-31.83L28.01-31.83 26.37-28.51Q22.65-30.28 18.81-30.28ZM35.07-21.99Q38.14-25.38 43.45-25.38 48.76-25.38 51.84-21.9 54.93-18.43 54.93-12.42 54.93-6.42 51.84-2.96L51.84-2.96Q48.76 0.46 43.37 0.46L43.37 0.46Q38.29 0.51 35.11-3.06 31.92-6.62 32-12.49L32-12.49Q32-18.6 35.07-21.99ZM43.4-22.17L43.4-22.17Q35.92-22.17 35.92-12.49L35.92-12.49Q35.92-7.71 37.83-5.21 39.73-2.7 43.45-2.7 47.17-2.7 49.09-5.19 51.01-7.68 51.01-12.47 51.01-17.26 49.09-19.72 47.17-22.17 43.4-22.17ZM65.82-19.65Q64.05-17.09 64.05-12.34 64.05-7.58 65.81-5.14 67.56-2.7 70.95-2.7L70.95-2.7Q74.82-2.7 76.56-4.82 78.31-6.93 78.31-11.6L78.31-11.6 78.31-12.39Q78.31-17.72 76.54-19.97 74.77-22.22 70.9-22.22L70.9-22.22Q67.59-22.22 65.82-19.65ZM78.31-3.34Q75.68 0.46 70.63 0.46 65.59 0.46 62.86-2.88L62.86-2.88Q60.13-6.27 60.13-12.41 60.13-18.55 62.86-21.97 65.59-25.38 70.58-25.38 75.58-25.38 78.26-21.71L78.26-21.71 78.56-21.71 78.38-23.51 78.31-25.25 78.31-35.39 82.07-35.39 82.07 0 79.01 0 78.51-3.34 78.31-3.34ZM100.6 0.46L100.6 0.46Q95.06 0.46 91.85-2.91L91.85-2.91Q88.67-6.27 88.67-12.29 88.67-18.3 91.63-21.84L91.63-21.84Q94.63-25.38 99.47-25.38 104.32-25.38 107.05-22.3 109.78-19.21 109.78-14.18L109.78-14.18 109.78-11.78 92.59-11.78Q92.71-7.41 94.81-5.12 96.91-2.83 100.86-2.83 104.82-2.83 108.69-4.52L108.69-4.52 108.69-1.16Q106.74-0.3 104.92 0.08 103.1 0.46 100.6 0.46ZM92.69-14.86L105.73-14.86Q105.73-18.43 104.14-20.32 102.55-22.22 99.58-22.22 96.61-22.22 94.8-20.27 92.99-18.33 92.69-14.86L92.69-14.86ZM164.04-33.27L168.14-33.27 159.24 0 155.42 0 148.72-22.27Q148.34-23.43 147.64-26.01L147.64-26.01Q147.08-28.24 147.03-28.72L147.03-28.72Q146.52-25.68 145.44-22.14L145.44-22.14 138.94 0 135.1 0 126.25-33.27 130.35-33.27 135.6-12.71Q136.72-8.37 137.2-4.88L137.2-4.88Q137.8-9.07 139.02-13.04L139.02-13.04 144.98-33.27 149.08-33.27 155.32-12.84Q156.48-9.15 157.17-4.88L157.17-4.88Q157.57-8.01 158.81-12.77L158.81-12.77 164.04-33.27ZM176.27-29.82Q175.64-29.17 174.66-29.17 173.67-29.17 173.06-29.82 172.46-30.46 172.46-31.7 172.46-32.94 173.06-33.57 173.67-34.2 174.66-34.2 175.64-34.2 176.27-33.56 176.91-32.91 176.91-31.69 176.91-30.46 176.27-29.82ZM172.76-24.92L176.55-24.92 176.55 0 172.76 0 172.76-24.92ZM188.61-21.99L188.61-7.33Q188.61-5.08 189.66-3.87 190.71-2.65 192.54-2.65 194.37-2.65 196.01-3.11L196.01-3.11 196.01-0.23Q195.43 0.05 194.18 0.25 192.93 0.46 192.05 0.46L192.05 0.46Q184.82 0.46 184.82-7.15L184.82-7.15 184.82-21.99 181.25-21.99 181.25-23.81 184.82-25.38 186.41-30.71 188.61-30.71 188.61-24.92 195.84-24.92 195.84-21.99 188.61-21.99ZM221.85-16.25L221.85 0 218.05 0 218.05-16.13Q218.05-19.21 216.66-20.69 215.27-22.17 212.34-22.17L212.34-22.17Q208.37-22.17 206.58-20.02 204.78-17.87 204.78-13.04L204.78-13.04 204.78 0 200.99 0 200.99-35.39 204.78-35.39 204.78-24.67Q204.78-22.65 204.61-21.49L204.61-21.49 204.83-21.49Q205.97-23.31 208.03-24.33 210.09-25.35 212.69-25.35L212.69-25.35Q217.32-25.35 219.58-23.15 221.85-20.96 221.85-16.25L221.85-16.25ZM243.6-33.27L252.22-33.27Q264.69-33.27 264.69-23.56L264.69-23.56Q264.69-18.53 261.24-15.8 257.79-13.07 251.39-13.07L251.39-13.07 247.47-13.07 247.47 0 243.6 0 243.6-33.27ZM251.8-29.9L247.47-29.9 247.47-16.41 250.96-16.41Q256.07-16.41 258.39-18.05L258.39-18.05Q260.69-19.72 260.69-23.22 260.69-26.72 258.52-28.31 256.35-29.9 251.8-29.9L251.8-29.9ZM270.83-8.62L270.83-24.92 274.64-24.92 274.64-8.75Q274.64-5.69 276.05-4.2 277.45-2.7 280.38-2.7L280.38-2.7Q284.3-2.7 286.09-4.85 287.89-7 287.89-11.83L287.89-11.83 287.89-24.92 291.68-24.92 291.68 0 288.57 0 288.02-3.34 287.81-3.34Q286.65-1.52 284.6-0.53 282.56 0.46 279.9 0.46L279.9 0.46Q275.3 0.46 273.06-1.73 270.83-3.92 270.83-8.62L270.83-8.62ZM311.04-25.38L311.04-25.38Q312.76-25.38 314.02-25.13L314.02-25.13 313.52-21.61Q312.03-21.94 310.79-21.94L310.79-21.94Q307.76-21.94 305.61-19.49 303.46-17.04 303.46-13.37L303.46-13.37 303.46 0 299.67 0 299.67-24.92 302.8-24.92 303.23-20.32 303.41-20.32Q304.8-22.78 306.76-24.08 308.72-25.38 311.04-25.38ZM334.89-5.31Q336.72-7.91 336.72-12.54 336.72-17.16 334.9-19.67 333.08-22.17 329.75-22.17L329.75-22.17Q325.95-22.17 324.23-20.07 322.52-17.97 322.46-13.32L322.46-13.32 322.46-12.49Q322.46-7.23 324.21-4.97 325.95-2.7 329.82-2.7L329.82-2.7Q333.06-2.7 334.89-5.31ZM337.94-21.99Q340.64-18.6 340.64-12.46 340.64-6.32 337.9-2.93 335.15 0.46 330.14 0.46 325.12 0.46 322.46-3.21L322.46-3.21 322.19-3.21Q322.46-0.91 322.46 0.94L322.46 0.94 322.46 11.2 318.67 11.2 318.67-24.92 321.76-24.92 322.29-21.51 322.46-21.51Q325.2-25.38 330.21-25.38 335.23-25.38 337.94-21.99ZM348.89-21.99Q351.96-25.38 357.27-25.38 362.58-25.38 365.66-21.9 368.75-18.43 368.75-12.42 368.75-6.42 365.66-2.96L365.66-2.96Q362.58 0.46 357.19 0.46L357.19 0.46Q352.11 0.51 348.93-3.06 345.74-6.62 345.82-12.49L345.82-12.49Q345.82-18.6 348.89-21.99ZM357.22-22.17L357.22-22.17Q349.74-22.17 349.74-12.49L349.74-12.49Q349.74-7.71 351.65-5.21 353.55-2.7 357.27-2.7 360.99-2.7 362.91-5.19 364.83-7.68 364.83-12.47 364.83-17.26 362.91-19.72 360.99-22.17 357.22-22.17ZM391.44-6.8L391.44-6.8Q391.44-3.31 388.85-1.43 386.26 0.46 381.43 0.46 376.61 0.46 373.82-1.11L373.82-1.11 373.82-4.63Q377.72-2.65 381.66-2.65L381.66-2.65Q387.8-2.65 387.8-6.47L387.8-6.47Q387.8-7.94 386.51-8.99 385.23-10.04 381.71-11.36 378.2-12.69 376.66-13.68L376.66-13.68Q373.75-15.65 373.75-18.76 373.75-21.87 376.23-23.62 378.7-25.38 382.91-25.38 387.12-25.38 390.91-23.76L390.91-23.76 389.57-20.68Q385.86-22.22 382.99-22.22 380.12-22.22 378.74-21.4 377.36-20.58 377.36-19.06L377.36-19.06Q377.36-18.1 377.86-17.38 378.35-16.66 379.49-16.01 380.62-15.37 383.89-14.18L383.89-14.18Q388.33-12.54 389.89-10.91 391.44-9.28 391.44-6.8ZM408.1 0.46L408.1 0.46Q402.56 0.46 399.35-2.91L399.35-2.91Q396.17-6.27 396.17-12.29 396.17-18.3 399.13-21.84L399.13-21.84Q402.13-25.38 406.97-25.38 411.82-25.38 414.55-22.3 417.28-19.21 417.28-14.18L417.28-14.18 417.28-11.78 400.09-11.78Q400.21-7.41 402.31-5.12 404.41-2.83 408.36-2.83 412.32-2.83 416.19-4.52L416.19-4.52 416.19-1.16Q414.24-0.3 412.42 0.08 410.6 0.46 408.1 0.46ZM400.19-14.86L413.23-14.86Q413.23-18.43 411.64-20.32 410.05-22.22 407.08-22.22 404.11-22.22 402.3-20.27 400.49-18.33 400.19-14.86L400.19-14.86ZM427.66-5.41L427.99-4.88Q426.78-0.13 423.97 6.02L423.97 6.02 421.14 6.02Q421.82 3.31 422.53-0.06 423.24-3.44 423.52-5.41L423.52-5.41 427.66-5.41ZM471.39-28.97Q475.69-24.67 475.69-16.68 475.69-8.7 471.22-4.35 466.76 0 458.34 0L458.34 0 449.14 0 449.14-33.27 459.33-33.27Q467.09-33.27 471.39-28.97ZM453.01-3.34L457.71-3.34Q464.61-3.34 468.1-6.74 471.59-10.14 471.59-16.72 471.59-23.31 468.33-26.61 465.07-29.9 458.62-29.9L458.62-29.9 453.01-29.9 453.01-3.34ZM493.07 0.46L493.07 0.46Q487.54 0.46 484.33-2.91L484.33-2.91Q481.14-6.27 481.14-12.29 481.14-18.3 484.1-21.84L484.1-21.84Q487.11-25.38 491.95-25.38 496.79-25.38 499.52-22.3 502.25-19.21 502.25-14.18L502.25-14.18 502.25-11.78 485.06-11.78Q485.19-7.41 487.29-5.12 489.38-2.83 493.34-2.83 497.3-2.83 501.16-4.52L501.16-4.52 501.16-1.16Q499.22-0.3 497.4 0.08 495.58 0.46 493.07 0.46ZM485.16-14.86L498.21-14.86Q498.21-18.43 496.61-20.32 495.02-22.22 492.05-22.22 489.08-22.22 487.27-20.27 485.47-18.33 485.16-14.86L485.16-14.86ZM524.77-6.8L524.77-6.8Q524.77-3.31 522.18-1.43 519.59 0.46 514.76 0.46 509.93 0.46 507.15-1.11L507.15-1.11 507.15-4.63Q511.04-2.65 514.99-2.65L514.99-2.65Q521.13-2.65 521.13-6.47L521.13-6.47Q521.13-7.94 519.84-8.99 518.55-10.04 515.04-11.36 511.52-12.69 509.98-13.68L509.98-13.68Q507.08-15.65 507.08-18.76 507.08-21.87 509.55-23.62 512.03-25.38 516.24-25.38 520.45-25.38 524.24-23.76L524.24-23.76 522.9-20.68Q519.18-22.22 516.32-22.22 513.45-22.22 512.07-21.4 510.69-20.58 510.69-19.06L510.69-19.06Q510.69-18.1 511.18-17.38 511.68-16.66 512.81-16.01 513.95-15.37 517.21-14.18L517.21-14.18Q521.66-12.54 523.22-10.91 524.77-9.28 524.77-6.8ZM534.4-29.82Q533.77-29.17 532.78-29.17 531.8-29.17 531.19-29.82 530.58-30.46 530.58-31.7 530.58-32.94 531.19-33.57 531.8-34.2 532.78-34.2 533.77-34.2 534.4-33.56 535.03-32.91 535.03-31.69 535.03-30.46 534.4-29.82ZM530.89-24.92L534.68-24.92 534.68 0 530.89 0 530.89-24.92ZM550.78-22.62L550.78-22.62Q548.07-22.62 546.66-21.18 545.24-19.74 545.24-17.05 545.24-14.36 546.71-13.01 548.17-11.65 550.83-11.65L550.83-11.65Q556.36-11.65 556.36-17.01L556.36-17.01Q556.36-22.62 550.78-22.62ZM554.47-24.92L563.09-24.92 563.09-22.55 558.46-21.99Q560.1-19.94 560.1-17.01L560.1-17.01Q560.1-13.35 557.6-11.15L557.6-11.15Q555.07-8.97 550.73-8.97L550.73-8.97Q549.69-8.97 548.63-9.18L548.63-9.18Q546.23-7.89 546.23-5.97L546.23-5.97Q546.23-4.9 547.07-4.44 547.92-3.97 549.94-3.97L549.94-3.97 554.37-3.97Q558.41-3.97 560.58-2.26 562.76-0.56 562.76 2.7L562.76 2.7Q562.76 6.85 559.43 9.02 556.11 11.2 549.74 11.2L549.74 11.2Q544.86 11.2 542.21 9.38 539.55 7.56 539.55 4.22L539.55 4.22Q539.55 1.92 541.02 0.28 542.49-1.37 545.11-1.95L545.11-1.95Q544.1-2.4 543.48-3.31 542.86-4.22 542.86-5.5 542.86-6.77 543.57-7.79 544.28-8.8 545.87-9.78L545.87-9.78Q543.95-10.57 542.71-12.49L542.71-12.49Q541.5-14.41 541.5-16.86L541.5-16.86Q541.5-20.96 543.96-23.17 546.43-25.38 550.93-25.38L550.93-25.38Q552.87-25.38 554.47-24.92L554.47-24.92ZM553.15-0.56L548.63-0.56Q546.05-0.56 544.62 0.68 543.19 1.92 543.19 4.07L543.19 4.07Q543.19 8.32 549.79 8.32L549.79 8.32Q554.44 8.32 556.78 6.93 559.12 5.54 559.12 3.03L559.12 3.03Q559.12 1.04 557.87 0.24 556.62-0.56 553.15-0.56L553.15-0.56ZM589.05-16.25L589.05 0 585.25 0 585.25-16.13Q585.25-19.21 583.86-20.69 582.47-22.17 579.54-22.17L579.54-22.17Q575.62-22.17 573.8-20.06 571.98-17.95 571.98-13.07L571.98-13.07 571.98 0 568.19 0 568.19-24.92 571.27-24.92 571.88-21.51 572.06-21.51Q573.22-23.33 575.32-24.36 577.42-25.38 580-25.38L580-25.38Q584.55-25.38 586.8-23.18 589.05-20.98 589.05-16.25L589.05-16.25ZM644.63-33.27L648.72-33.27 639.82 0 636.01 0 629.31-22.27Q628.93-23.43 628.22-26.01L628.22-26.01Q627.67-28.24 627.61-28.72L627.61-28.72Q627.11-25.68 626.02-22.14L626.02-22.14 619.53 0 615.68 0 606.84-33.27 610.93-33.27 616.19-12.71Q617.3-8.37 617.78-4.88L617.78-4.88Q618.39-9.07 619.6-13.04L619.6-13.04 625.57-33.27 629.66-33.27 635.91-12.84Q637.07-9.15 637.75-4.88L637.75-4.88Q638.16-8.01 639.39-12.77L639.39-12.77 644.63-33.27ZM656.86-29.82Q656.23-29.17 655.24-29.17 654.26-29.17 653.65-29.82 653.04-30.46 653.04-31.7 653.04-32.94 653.65-33.57 654.26-34.2 655.24-34.2 656.23-34.2 656.86-33.56 657.49-32.91 657.49-31.69 657.49-30.46 656.86-29.82ZM653.35-24.92L657.14-24.92 657.14 0 653.35 0 653.35-24.92ZM669.19-21.99L669.19-7.33Q669.19-5.08 670.24-3.87 671.29-2.65 673.12-2.65 674.96-2.65 676.6-3.11L676.6-3.11 676.6-0.23Q676.02 0.05 674.77 0.25 673.51 0.46 672.63 0.46L672.63 0.46Q665.4 0.46 665.4-7.15L665.4-7.15 665.4-21.99 661.84-21.99 661.84-23.81 665.4-25.38 666.99-30.71 669.19-30.71 669.19-24.92 676.42-24.92 676.42-21.99 669.19-21.99ZM702.43-16.25L702.43 0 698.64 0 698.64-16.13Q698.64-19.21 697.25-20.69 695.86-22.17 692.93-22.17L692.93-22.17Q688.96-22.17 687.16-20.02 685.37-17.87 685.37-13.04L685.37-13.04 685.37 0 681.58 0 681.58-35.39 685.37-35.39 685.37-24.67Q685.37-22.65 685.19-21.49L685.19-21.49 685.42-21.49Q686.56-23.31 688.62-24.33 690.68-25.35 693.28-25.35L693.28-25.35Q697.91-25.35 700.17-23.15 702.43-20.96 702.43-16.25L702.43-16.25ZM724.19-33.27L732.81-33.27Q745.27-33.27 745.27-23.56L745.27-23.56Q745.27-18.53 741.82-15.8 738.37-13.07 731.98-13.07L731.98-13.07 728.06-13.07 728.06 0 724.19 0 724.19-33.27ZM732.38-29.9L728.06-29.9 728.06-16.41 731.55-16.41Q736.65-16.41 738.98-18.05L738.98-18.05Q741.28-19.72 741.28-23.22 741.28-26.72 739.1-28.31 736.93-29.9 732.38-29.9L732.38-29.9ZM753.76-6.85L753.76-6.85Q753.76-4.83 755-3.74 756.24-2.65 758.46-2.65L758.46-2.65Q762.03-2.65 764.03-4.59 766.02-6.52 766.02-10.01L766.02-10.01 766.02-12.26 762.26-12.11Q757.76-11.93 755.76-10.69 753.76-9.45 753.76-6.85ZM769.81-17.01L769.81 0 767.01 0 766.25-3.54 766.07-3.54Q764.2-1.21 762.36-0.38 760.51 0.46 757.73 0.46L757.73 0.46Q753.99 0.46 751.9-1.47 749.82-3.39 749.82-6.9L749.82-6.9Q749.82-14.43 761.88-14.81L761.88-14.81 766.12-14.94 766.12-16.48Q766.12-19.46 764.86-20.84 763.6-22.22 760.65-22.22 757.71-22.22 753.76-20.32L753.76-20.32 752.6-23.21Q756.54-25.35 761.04-25.35 765.54-25.35 767.68-23.36 769.81-21.36 769.81-17.01L769.81-17.01ZM793.67-6.8L793.67-6.8Q793.67-3.31 791.08-1.43 788.49 0.46 783.66 0.46 778.84 0.46 776.06-1.11L776.06-1.11 776.06-4.63Q779.95-2.65 783.89-2.65L783.89-2.65Q790.03-2.65 790.03-6.47L790.03-6.47Q790.03-7.94 788.74-8.99 787.46-10.04 783.94-11.36 780.43-12.69 778.89-13.68L778.89-13.68Q775.98-15.65 775.98-18.76 775.98-21.87 778.46-23.62 780.93-25.38 785.14-25.38 789.35-25.38 793.14-23.76L793.14-23.76 791.8-20.68Q788.09-22.22 785.22-22.22 782.35-22.22 780.97-21.4 779.59-20.58 779.59-19.06L779.59-19.06Q779.59-18.1 780.09-17.38 780.58-16.66 781.72-16.01 782.85-15.37 786.12-14.18L786.12-14.18Q790.56-12.54 792.12-10.91 793.67-9.28 793.67-6.8ZM815.89-6.8L815.89-6.8Q815.89-3.31 813.3-1.43 810.71 0.46 805.88 0.46 801.05 0.46 798.27-1.11L798.27-1.11 798.27-4.63Q802.16-2.65 806.11-2.65L806.11-2.65Q812.25-2.65 812.25-6.47L812.25-6.47Q812.25-7.94 810.96-8.99 809.67-10.04 806.16-11.36 802.65-12.69 801.1-13.68L801.1-13.68Q798.2-15.65 798.2-18.76 798.2-21.87 800.67-23.62 803.15-25.38 807.36-25.38 811.57-25.38 815.36-23.76L815.36-23.76 814.02-20.68Q810.3-22.22 807.44-22.22 804.57-22.22 803.19-21.4 801.81-20.58 801.81-19.06L801.81-19.06Q801.81-18.1 802.3-17.38 802.8-16.66 803.93-16.01 805.07-15.37 808.33-14.18L808.33-14.18Q812.78-12.54 814.34-10.91 815.89-9.28 815.89-6.8ZM825.52-29.82Q824.89-29.17 823.9-29.17 822.92-29.17 822.31-29.82 821.7-30.46 821.7-31.7 821.7-32.94 822.31-33.57 822.92-34.2 823.9-34.2 824.89-34.2 825.52-33.56 826.15-32.91 826.15-31.69 826.15-30.46 825.52-29.82ZM822.01-24.92L825.8-24.92 825.8 0 822.01 0 822.01-24.92ZM835.46-21.99Q838.53-25.38 843.84-25.38 849.15-25.38 852.24-21.9 855.32-18.43 855.32-12.42 855.32-6.42 852.24-2.96L852.24-2.96Q849.15 0.46 843.77 0.46L843.77 0.46Q838.69 0.51 835.5-3.06 832.32-6.62 832.39-12.49L832.39-12.49Q832.39-18.6 835.46-21.99ZM843.79-22.17L843.79-22.17Q836.31-22.17 836.31-12.49L836.31-12.49Q836.31-7.71 838.22-5.21 840.13-2.7 843.84-2.7 847.56-2.7 849.48-5.19 851.4-7.68 851.4-12.47 851.4-17.26 849.48-19.72 847.56-22.17 843.79-22.17ZM882.77-16.25L882.77 0 878.98 0 878.98-16.13Q878.98-19.21 877.59-20.69 876.2-22.17 873.26-22.17L873.26-22.17Q869.35-22.17 867.53-20.06 865.71-17.95 865.71-13.07L865.71-13.07 865.71 0 861.91 0 861.91-24.92 865-24.92 865.61-21.51 865.78-21.51Q866.94-23.33 869.04-24.36 871.14-25.38 873.72-25.38L873.72-25.38Q878.27-25.38 880.52-23.18 882.77-20.98 882.77-16.25L882.77-16.25ZM894.7-0.15Q893.94 0.66 892.69 0.66 891.44 0.66 890.7-0.1 889.97-0.86 889.97-2.39 889.97-3.92 890.67-4.71 891.36-5.51 892.68-5.51 893.99-5.51 894.72-4.71 895.46-3.92 895.46-2.44 895.46-0.96 894.7-0.15Z" opacity="1" transform="matrix(1,0,0,1,0,0)" fill="#ff908b" class="undefined-text-1" data-fill-palette-color="secondary" id="text-1"></path></svg></g></svg></g></svg></g></svg></g><g></g></svg></g><defs></defs></svg><rect width="395.52" height="217.82733959047425" fill="none" stroke="none" visibility="hidden"></rect></g></svg></g></svg>